<svg xmlns="http://www.w3.org/2000/svg" xmlns:xlink="http://www.w3.org/1999/xlink" viewBox="0 0 420.85 383.22"><defs><style>.cls-1{fill:none;}.cls-2{fill:#f7aab5;}.cls-3{fill:#feeaed;}.cls-10,.cls-12,.cls-13,.cls-15,.cls-16,.cls-18,.cls-19,.cls-23,.cls-3,.cls-4,.cls-5,.cls-6,.cls-7,.cls-8,.cls-9{fill-rule:evenodd;}.cls-4{fill:#edb14d;}.cls-5{fill:#201f1d;}.cls-6{fill:#46937b;}.cls-7{fill:#fa604b;}.cls-8{fill:#f8f0e9;}.cls-9{fill:#367160;}.cls-10{fill:#fbfaeb;}.cls-11{clip-path:url(#clip-path);}.cls-13{fill:#8fb3c2;}.cls-14{clip-path:url(#clip-path-2);}.cls-15{fill:#cedee4;}.cls-16{fill:#fb624d;}.cls-17{clip-path:url(#clip-path-3);}.cls-18{fill:#fff;}.cls-19{fill:#f4b484;}.cls-20{clip-path:url(#clip-path-4);}.cls-21{clip-path:url(#clip-path-5);}.cls-22{clip-path:url(#clip-path-6);}.cls-23{fill:#c23521;}</style><clipPath id="clip-path" transform="translate(-37.8 -67.98)"><polygon class="cls-1" points="162.4 167.13 152.72 157.08 314.95 140.41 335.11 148.33 328.6 404.87 152.35 412.52 162.4 167.13"/></clipPath><clipPath id="clip-path-2" transform="translate(-37.8 -67.98)"><polygon class="cls-1" points="365.77 140.41 335.11 148.34 170.36 166.51 195.88 434.19 357.56 448.55 365.77 140.41"/></clipPath><clipPath id="clip-path-3" transform="translate(-37.8 -67.98)"><path class="cls-1" d="M312.19,300.68c-30.67-3.49-66.21,13.46-83.37,42.66-21,35.68-15.71,75.53-15.71,75.53l50.61.29s-.61-63.87,39-64.2c54.31-.44,42.33,69,42.33,69l44.89-.54S413.33,312.15,312.19,300.68Z"/></clipPath><clipPath id="clip-path-4" transform="translate(-37.8 -67.98)"><path class="cls-1" d="M290.2,421.15s2,7.91,1.91,11.32c-.06,3-37.29,2-37.29,2a8.14,8.14,0,0,1-.15-2.45c.23-.41,16.2-3.92,19.68-6.05s2.36-3.69,2.46-4.81c0,0,2.36-.3,2.71,1.45l-.49,3.55,3.29-2.78Z"/></clipPath><clipPath id="clip-path-5" transform="translate(-37.8 -67.98)"><path class="cls-1" d="M335.82,390.6s8,1.39,11.12,2.83c2.69,1.26-13.26,34.91-13.26,34.91a8.06,8.06,0,0,1-2.3-.85c-.28-.38,3-16.4,2.43-20.44s-2.42-3.66-3.41-4.2c0,0,.69-2.28,2.42-1.89l3.05,1.88-1.21-4.14Z"/></clipPath><clipPath id="clip-path-6" transform="translate(-37.8 -67.98)"><path class="cls-1" d="M283.51,245.47s-10.65-3.17-21.11,10.39-13.19,14.86-13.19,14.86-8.54-5.67-16.82-.78l-4.81,7a7.85,7.85,0,0,0,1.6,7.77c4.68,5.54,16.9,8.74,22.61,8.58,7.5-.2,13.26-6,13.26-6s-3.68,9.79,1.78,12.17l33.68-1.07c4.39-.47,2.9-5.08,2.9-5.08s10.2,5,18.12,1c7.14-3.62,9.24-13.58,3.24-22.26-4.06-5.89-15-24-22.85-25.25-5.66-.93-6.63-1.53-6.63-1.53S290.85,249.71,283.51,245.47Z"/></clipPath></defs><g id="OBJECTS"><ellipse class="cls-2" cx="204.43" cy="346.61" rx="142.9" ry="31.21"/><path class="cls-3" d="M273.75,386.1a2.5,2.5,0,0,0,.9-.19,5.91,5.91,0,0,0,1.26-1.24c4.5-4.58,9.52-10.33,15-17,16.9-20.47,38.08-49.53,59.32-81.17,6.92-10.31,13.81-20.92,20.54-31.61,16.32-25.9,31.71-52.27,44.34-76,2.66-5,6.94-13.41,8.61-21.45,1.22-5.92,1-11.64-2-15.81-2.55-3.54-6.15-4.22-10.53-2.55-3.63,1.38-7.87,4.5-12.46,8.83-21.61,20.4-51.4,68-61.71,76.95a47.59,47.59,0,0,1-5.62,4.5c-1.42.89-2.71,1.72-3.43,1.07-1.66-1.53-2.05-3.95-1.59-7.07,1-7.18,6.61-17.74,14-30.12,15.46-26,39-59.86,47.76-86.27,4.86-14.59,5.14-27-2.25-34.92-4.91-5.25-10.34-5.21-16.12-1.21-4.94,3.41-10.19,9.94-15.56,18.53-15.82,25.29-33.08,68.54-48.19,99.84-6.87,14.24-13.25,26-18.95,32.33-2.49,2.76-4.77,4.48-6.93,4.67-.4,0-.42-.49-.6-1a16.14,16.14,0,0,1-.61-4,63.43,63.43,0,0,1,.47-10.67c1.59-7.95,12.55-44.33,11.41-57.33-.29-3.31-1.46-5.19-3.36-5.27-1.66-.06-4.17,1.38-7.6,5a39.69,39.69,0,0,0-4.53,5.92,86.59,86.59,0,0,0-5.17,9.82.55.55,0,1,0,1,.46,82.57,82.57,0,0,1,5.17-9.64,36.74,36.74,0,0,1,4.45-5.68c3.06-3.18,5.16-4.61,6.62-4.53.94.05,1.42.91,1.72,2.23a28.89,28.89,0,0,1-.09,8.91c-1.94,15.92-10.41,42.91-11.84,49.61-.24,1.09-1.3,10.37-.23,15.1.55,2.44,1.85,3.74,3.4,3.62,2.65-.2,5.59-2.07,8.68-5.41,5.9-6.39,12.63-18.29,19.72-32.8,15.21-31.13,32.28-74.32,48-99.54,5.1-8.16,10-14.42,14.7-17.68,4.38-3,8.5-3.2,12.23.78,6.78,7.22,6.1,18.6,1.69,32-8.65,26.28-32,59.91-47.13,85.93-7.4,12.76-12.8,23.73-13.76,31.1-.5,3.86.2,6.81,2.28,8.66,1,.87,2.63.7,4.46-.25a42.89,42.89,0,0,0,7-5.26c10.38-8.89,40.56-56.19,62.36-76.37,4.29-4,8.23-6.88,11.62-8.13,3-1.09,5.41-.8,7.1,1.6,2.51,3.56,2.45,8.43,1.36,13.44-1.68,7.7-5.91,15.73-8.52,20.5-15.3,28.05-34.8,59.61-54.49,90.06-8.33,12.88-16.64,25.61-24.81,37.7C315.57,330.62,299,353.37,285.79,370c-4.19,5.3-8,10-11.44,13.92a4.49,4.49,0,0,0-.79.91,3.12,3.12,0,0,0-.14,1,.22.22,0,0,0,0,.31A.22.22,0,0,0,273.75,386.1Z" transform="translate(-37.8 -67.98)"/><path class="cls-4" d="M306.87,375.66c5.7,4.42,10.29,10.15,16.29,14.14,6.39,4.25,13.7,8.18,21,9.57,3.73.71,9.63.06,5.77-5.49-3.13-4.5-9-6.78-13.61-8.69a215.59,215.59,0,0,0-30.06-9.53" transform="translate(-37.8 -67.98)"/><path class="cls-4" d="M325,371.05c5.54,3.22,11.17,6.17,16.84,9.05,6.18,3.13,13.05,6.07,19.74,6.6,2.59.2,9.05.45,4.91-4.19-3.45-3.87-8.34-5.39-12.9-6.68-8.44-2.39-17.57-4.43-26.19-4.89" transform="translate(-37.8 -67.98)"/><path class="cls-4" d="M341.83,362.24a130.45,130.45,0,0,0,15.52,7.94,88.76,88.76,0,0,0,9.69,3.56c4.06,1.25,8.76,2.66,12.85,1.79,5.92-1.27-1.58-7.83-4.13-9-8.84-3.92-21.81-5.38-31.22-4.66" transform="translate(-37.8 -67.98)"/><path class="cls-4" d="M361.64,350.21c5.75,2.24,11.28,5.16,17.11,7.13s12.05,3.22,18,2.78c3.23-.24,6.68-1,2.66-4.84a10.91,10.91,0,0,0-1.5-1.13c-3.34-2.08-7.54-2.53-11.2-3.08-7.76-1.16-16.37-2.4-24-1.21" transform="translate(-37.8 -67.98)"/><path class="cls-4" d="M378.38,341.21c8.79,4.21,18.65,7.92,28.07,8.26a31,31,0,0,0,7.27-.54c.1,0,1.84-.43,1.78-.62-1.44-4.21-7.88-5.43-11.25-6.11-9.71-2-19.68-.49-29.41-1.09" transform="translate(-37.8 -67.98)"/><path class="cls-4" d="M393.44,327.84c5.28,1.58,10.47,3.67,15.78,5.12,5.77,1.58,11.62,2.82,17.38,1.9,2.62-.41,6.75-.53,3-3.89a15,15,0,0,0-1.53-1.12c-9.24-5.55-22.78-4-32.52-2.81" transform="translate(-37.8 -67.98)"/><path class="cls-4" d="M412.35,313.89c5.21,0,10.44,1.2,15.65,1.9,5.39.72,10.66,1.11,15.88-.06.37-.08,5.17-1.25,5-2-.6-2.94-7.3-3.63-9.2-3.81-8.52-.82-17.46,1-25.64,2.75" transform="translate(-37.8 -67.98)"/><path class="cls-4" d="M427.29,299.45a89.91,89.91,0,0,0,25-6.15c.52-.22,6.11-2.78,5.9-3.73-.54-2.43-6.73-1.3-7.95-1a76.58,76.58,0,0,0-21.36,8.7c-.48.27.89-.69,1.34-1s1-.78,1.44-1.07c1.88-1.31,3.74-2.62,5.51-4.09,5.39-4.46,11.66-8.88,15.34-15.19.45-.79,2.72-5.42,1.6-6.37-3-2.49-7.95,2.44-9.66,4.12-7.29,7.22-12.58,18.8-17.82,27.82" transform="translate(-37.8 -67.98)"/><path class="cls-4" d="M410.28,314.94c6.67-5.68,12.15-20.18,14.09-29.17.47-2.19,2.22-10.34-2.19-9.63-3.78.6-5.25,5.32-6.14,8.74C413.64,294.16,414,306.14,410.28,314.94Z" transform="translate(-37.8 -67.98)"/><path class="cls-4" d="M392.57,329.05c5.92-7.39,9.41-18.13,10.92-27.95.3-2,1.84-10.07-1.89-10.39s-5.56,4.91-6.41,7.83c-2.61,8.92-2.07,22.6-3,31.88" transform="translate(-37.8 -67.98)"/><path class="cls-4" d="M373.73,344.65c5-8.81,10.09-22.7,10.41-33.44.09-3-.65-12.77-5.62-9.12-3.28,2.41-4.17,7.53-4.59,11.65-1,9.49.73,19.26-.78,28.67" transform="translate(-37.8 -67.98)"/><path class="cls-4" d="M352.74,356.36c5.05-5.89,8.25-14.6,10.09-22.43a48,48,0,0,0,1.13-7c.19-2.46-.32-14.22-5.35-9.28a8.39,8.39,0,0,0-1.37,1.8c-2.24,3.94-2.08,9.13-2.33,13.75-.32,6.12.78,12.89-.58,18.83" transform="translate(-37.8 -67.98)"/><path class="cls-4" d="M334.19,366.38c6.95-7.35,11-18.41,11.8-29.16.15-1.88,1-12.55-3.16-11.74-3.93.77-5.83,6.51-6.89,10.08-3,9.94-1.69,21.42-5.06,31.05" transform="translate(-37.8 -67.98)"/><path class="cls-4" d="M315.67,374.19A61.46,61.46,0,0,0,325.87,345c.1-1.12.09-1,.15-2.09s.91-12.12-2.9-9.46-5.05,8.47-6,13.21c-1.94,9.53-2.16,20.78-5.89,29.61" transform="translate(-37.8 -67.98)"/><path class="cls-5" d="M319.28,372.05a3.39,3.39,0,0,0,1,.25,7.39,7.39,0,0,0,2-.6c3.5-1.08,6.92-2.28,10.25-3.65A149.44,149.44,0,0,0,347.29,361c13.13-7.13,25.38-15.88,37.81-24.74,4.65-3.33,8.65-6.26,12.55-9.34s7.67-6.3,11.89-10.19c4.63-4.32,12.21-11.58,20.38-20.18,6.31-6.63,13-14.08,19.05-21.42a.14.14,0,0,0,0-.2.14.14,0,0,0-.19,0c-5,5.68-10.41,11.38-15.65,16.73-3.34,3.42-6.63,6.68-9.71,9.72-6,5.95-11.28,11-14.85,14.27-4.2,3.86-8,7-11.82,10.09s-7.87,6-12.51,9.28c-12.37,8.83-24.57,17.54-37.65,24.65q-7.08,3.85-14.56,7c-3.28,1.38-6.63,2.68-10.06,3.82a8.37,8.37,0,0,0-2,.65c-.34.21-.43.47-.71.77a.07.07,0,0,0,0,.08A.06.06,0,0,0,319.28,372.05Z" transform="translate(-37.8 -67.98)"/><path class="cls-5" d="M427.48,298.42a4.39,4.39,0,0,0,.72.07,5.37,5.37,0,0,0,.7-.11,85.26,85.26,0,0,0,12.29-3.07,87.29,87.29,0,0,0,12.94-5.52s0-.05,0-.09a.08.08,0,0,0-.09,0,93.25,93.25,0,0,1-13,5.16,112.24,112.24,0,0,1-12.24,3,5.12,5.12,0,0,0-.68.14,6.62,6.62,0,0,0-.66.3.08.08,0,0,0-.06.08A.06.06,0,0,0,427.48,298.42Z" transform="translate(-37.8 -67.98)"/><path class="cls-5" d="M413.07,314.15c.28,0,.53.1.81.11a11.69,11.69,0,0,0,1.19-.09c6-.45,12-.4,17.94-.7,2.86-.14,5.7-.39,8.53-.79a.13.13,0,0,0,.11-.14.12.12,0,0,0-.14-.1c-3.77.42-7.57.53-11.37.62s-7.61.13-11.4.32c-1.53.08-3.05.17-4.56.33a3.4,3.4,0,0,0-.46.06c-.24.06-.43.16-.66.24,0,0-.07,0-.06.08A.07.07,0,0,0,413.07,314.15Z" transform="translate(-37.8 -67.98)"/><path class="cls-5" d="M412.45,313.92c.43-1.74.92-3.46,1.38-5.17,1.1-4,2.25-8,3.18-12.08a71.55,71.55,0,0,0,1.77-11.77,0,0,0,0,0,0,0,0,0,0,0,0-.06,0,72.71,72.71,0,0,1-1.43,8.78c-1,4.75-2.39,9.39-3.57,14.11-.51,2-.95,4-1.36,6.1a.09.09,0,0,0,.05.08A.08.08,0,0,0,412.45,313.92Z" transform="translate(-37.8 -67.98)"/><path class="cls-5" d="M395.6,328.3a.71.71,0,0,0,.14.1,3.09,3.09,0,0,0,.62.12c2.3.42,4.63.73,7,1,3.87.5,7.77,1,11.61,1.6a80.27,80.27,0,0,1,8.18,1.73.14.14,0,1,0,.08-.26,78.94,78.94,0,0,0-10.93-2.45c-3.31-.52-6.66-.9-10-1.29l-6-.71a2.38,2.38,0,0,0-.53-.05c-.06,0-.09,0-.14,0a.08.08,0,0,0-.08.06A.06.06,0,0,0,395.6,328.3Z" transform="translate(-37.8 -67.98)"/><path class="cls-5" d="M393.06,329.79c.08-.18.17-.35.24-.54a22.25,22.25,0,0,0,.59-2.27c.9-3.79,1.47-7.66,2.48-11.42.72-2.75,1.76-5.51,2.48-8.32a27.36,27.36,0,0,0,.91-5.73.11.11,0,0,0-.1-.12.1.1,0,0,0-.12.1,26.6,26.6,0,0,1-.73,4.25c-.79,3.28-2,6.51-2.86,9.71-.25.95-.47,1.9-.67,2.85-.66,3.05-1.17,6.13-1.86,9.17-.14.61-.33,1.2-.44,1.81,0,.16,0,.31-.05.47a.07.07,0,0,0,.05.09A.07.07,0,0,0,393.06,329.79Z" transform="translate(-37.8 -67.98)"/><path class="cls-5" d="M377.34,341.48c.18,0,.35.12.54.16,1.61.34,3.27.42,4.9.65,4.25.58,8.48,1.23,12.73,1.76q6.06.76,12.19,1.09a.08.08,0,0,0,.08-.08.08.08,0,0,0-.07-.08c-4.08-.33-8.1-.9-12.13-1.45s-8.08-1.13-12.13-1.63c-1.82-.22-3.64-.56-5.47-.6-.22,0-.42,0-.63,0a.09.09,0,0,0-.07.06A.08.08,0,0,0,377.34,341.48Z" transform="translate(-37.8 -67.98)"/><path class="cls-5" d="M374,342.7c.11-.05.14,0,.21-.1a3.56,3.56,0,0,0,.44-1.37,88.87,88.87,0,0,0,2.86-14.08,66,66,0,0,0,.26-15.93.11.11,0,1,0-.22,0,69.05,69.05,0,0,1-.57,15.84,107.74,107.74,0,0,1-2.84,14,4,4,0,0,0-.38,1.38c0,.11.06.1.12.2a.06.06,0,0,0,.12,0Z" transform="translate(-37.8 -67.98)"/><path class="cls-5" d="M353.17,357.37c.15,0,.06.07.16,0s0-.09,0-.14q.19-.75.45-1.77c1-4.19,2.65-11.37,3.87-17.87,1.15-6.11,1.91-11.62,1.78-13.44a.09.09,0,0,0-.17,0,43,43,0,0,1-.91,6.67c-.46,2.52-1.05,5.47-1.67,8.5-.9,4.45-1.86,9.08-2.65,12.71-.42,1.92-.79,3.56-1.05,4.76,0,.17-.15.34-.1.48s0,0,.12.08,0,.08,0,.08A.06.06,0,0,0,353.17,357.37Z" transform="translate(-37.8 -67.98)"/><path class="cls-5" d="M337.87,359.44c.1-.45.23-.89.31-1.34.11-.68.16-1.36.24-2,.51-4.51,1-9.07,1.71-13.56.39-2.42.81-4.83,1.35-7.2a.12.12,0,0,0-.09-.14.11.11,0,0,0-.14.08,104.88,104.88,0,0,0-2.35,12c-.5,3.65-1,7.3-1.19,10.94,0,.42,0,.82,0,1.24a.06.06,0,0,0,.05.07A.08.08,0,0,0,337.87,359.44Z" transform="translate(-37.8 -67.98)"/><path class="cls-5" d="M342.16,363.54a1.26,1.26,0,0,0,.26.13,2.7,2.7,0,0,0,.41.05c2,.27,4.05.59,6.08.91,3.36.54,6.73,1.13,10.08,1.77q8.4,1.62,16.7,3.59a.19.19,0,0,0,.08-.37c-3.3-.85-6.62-1.7-10-2.46s-6.69-1.44-10.06-2c-3.15-.56-6.31-1-9.48-1.41a26.66,26.66,0,0,0-3.68-.36,3.19,3.19,0,0,0-.42.05.07.07,0,0,0-.07.06S342.12,363.54,342.16,363.54Z" transform="translate(-37.8 -67.98)"/><path class="cls-5" d="M343.05,375.63a6.21,6.21,0,0,0,.6.35c.21.09.43.14.64.21,3.85,1.21,7.63,2.59,11.45,3.87,2.84.94,5.7,1.8,8.61,2.54a.18.18,0,0,0,.21-.12.17.17,0,0,0-.12-.21c-2.88-.82-5.69-1.81-8.5-2.79s-5.65-2-8.5-2.86a31.63,31.63,0,0,0-3.44-1,9,9,0,0,0-.91-.08.07.07,0,0,0-.08,0A.06.06,0,0,0,343.05,375.63Z" transform="translate(-37.8 -67.98)"/><path class="cls-5" d="M365.16,350.69c.34.08.65.19,1,.24,3,.43,6,.49,9,.92,5,.73,10,1.7,15,2.48a.19.19,0,0,0,.21-.15.18.18,0,0,0-.15-.21c-4.94-.86-9.92-2-14.93-2.74a42.35,42.35,0,0,0-9.09-.86,7,7,0,0,0-1,.19.06.06,0,0,0-.07.06A.07.07,0,0,0,365.16,350.69Z" transform="translate(-37.8 -67.98)"/><path class="cls-6" d="M316.46,261.92c4.05-.7,8.05,2.93,9,8.11s-.64,26.72-1.21,26.91c-.75.25-12.54-19.2-13.43-24.37S312.42,262.61,316.46,261.92Z" transform="translate(-37.8 -67.98)"/><path class="cls-6" d="M332.48,247.27c4.06-.54,7.93,3.24,8.63,8.45s-1.66,26.68-2.24,26.85c-.75.22-11.79-19.67-12.49-24.87S328.41,247.82,332.48,247.27Z" transform="translate(-37.8 -67.98)"/><path class="cls-6" d="M344.18,217.31c4.1-1.26,8.69,1.88,10.26,7s2.61,27.1,2.05,27.37c-.74.35-15.33-17.73-16.89-22.84S340.09,218.56,344.18,217.31Z" transform="translate(-37.8 -67.98)"/><path class="cls-6" d="M365.42,194.13c5,.73,8.26,6.2,7.37,12.21s-10.69,29.07-11.42,29.07c-1,0-7.42-25.71-6.53-31.72S360.47,193.39,365.42,194.13Z" transform="translate(-37.8 -67.98)"/><path class="cls-6" d="M385.68,230.69c2.49,3.92.88,9.4-3.58,12.24s-25.41,9.19-25.85,8.68c-.57-.68,12.37-20,16.83-22.87S383.19,226.78,385.68,230.69Z" transform="translate(-37.8 -67.98)"/><path class="cls-6" d="M371,263.92c1.89,4.23-.5,9.42-5.32,11.58s-26.48,5.4-26.84,4.83c-.47-.76,15.16-18,20-20.18S369.12,259.68,371,263.92Z" transform="translate(-37.8 -67.98)"/><path class="cls-6" d="M359.09,290.26c.57,4.6-3.22,8.87-8.47,9.53s-26.9-2.55-27.07-3.2c-.23-.86,19.74-12.82,25-13.48S358.51,285.66,359.09,290.26Z" transform="translate(-37.8 -67.98)"/><path class="cls-5" d="M364.6,204.16c-.4-.45.45.15-.35,0a.07.07,0,0,0-.06-.07.07.07,0,0,0-.07.07c-.52.16-.1-.31-.43.13-.1.14,0,.33,0,.5,0,1.88,0,3.74-.1,5.57A131.5,131.5,0,0,1,362,227a114.06,114.06,0,0,1-12.47,36.6,122.69,122.69,0,0,1-18.15,24.82A145.33,145.33,0,0,1,308,308.6a.45.45,0,0,0,.5.76,137,137,0,0,0,24.18-19.68,115.91,115.91,0,0,0,18.44-25.2,112.17,112.17,0,0,0,12.4-37.25,120.78,120.78,0,0,0,1.28-16.81c0-1.85,0-3.72-.09-5.62a4.18,4.18,0,0,0,0-.5s0,0,0-.05Z" transform="translate(-37.8 -67.98)"/><path class="cls-5" d="M356.25,249.63c-.57-1.64-1.18-3.26-1.86-4.86-2.43-5.72-5.23-11.29-7.6-17.05-.27-.64-.56-1.26-.82-1.91a.1.1,0,0,0-.13-.06.11.11,0,0,0-.07.13c.22.75.44,1.5.7,2.24.61,1.72,1.36,3.38,2.1,5,1.48,3.32,3.08,6.59,4.62,9.88,1,2.19,2.05,4.38,2.94,6.63a.06.06,0,0,0,.08,0A.07.07,0,0,0,356.25,249.63Z" transform="translate(-37.8 -67.98)"/><path class="cls-5" d="M357.22,250.71c.16.11-.06.09.14.09s.22-.16.33-.24a38.21,38.21,0,0,1,3.58-2.16c2.06-1.12,4.18-2.15,6.18-3.33,3.05-1.84,6.05-3.78,9.09-5.65,2-1.25,4.06-2.48,6.17-3.57a.07.07,0,0,0,0-.09.08.08,0,0,0-.1,0c-1.62.75-3.22,1.55-4.78,2.43-3.63,2-7.12,4.33-10.7,6.42-2.33,1.39-4.83,2.54-7.18,3.93a27.67,27.67,0,0,0-2.65,1.76c-.08.05-.2.08-.23.17s0,0,0,.17a.06.06,0,0,0,0,.09A.07.07,0,0,0,357.22,250.71Z" transform="translate(-37.8 -67.98)"/><path class="cls-5" d="M339.12,279.47c-.24-.93-.47-1.87-.72-2.8-1-3.73-2-7.44-2.73-11.22a60.74,60.74,0,0,1-1.11-9.54.08.08,0,0,0-.09-.08.09.09,0,0,0-.08.08,59.23,59.23,0,0,0,.87,9.62A90.48,90.48,0,0,0,338,276.79c.28.93.6,1.83.91,2.75a.12.12,0,0,0,.15.07A.1.1,0,0,0,339.12,279.47Z" transform="translate(-37.8 -67.98)"/><path class="cls-5" d="M340,278.91l.14,0a4.38,4.38,0,0,0,1.16-.38c.64-.23,1.26-.52,1.87-.81,2.34-1.15,4.59-2.63,6.86-3.8,3.73-1.93,7.56-3.79,11.19-5.95a57.41,57.41,0,0,0,7-4.81.08.08,0,0,0,0-.13.1.1,0,0,0-.14,0,63.6,63.6,0,0,1-7.07,4.56c-3.66,2.09-7.47,4-11.2,5.9-1.94,1-3.87,2.23-5.84,3.32-.92.5-1.85,1-2.79,1.4a8.27,8.27,0,0,0-1.1.47l-.1.11a.07.07,0,0,0-.05.08S339.94,278.93,340,278.91Z" transform="translate(-37.8 -67.98)"/><path class="cls-5" d="M324.39,295.69c-.27-1.05-.49-2.1-.75-3.14-.39-1.56-.82-3.11-1.2-4.68-.63-2.62-1.23-5.25-1.86-7.85-.67-2.79-1.45-5.64-2.12-8.49-.45-1.9-.86-3.8-1.14-5.7a.14.14,0,0,0-.16-.13.14.14,0,0,0-.12.16c.15,1.45.37,2.9.66,4.34.67,3.35,1.64,6.67,2.42,9.93.88,3.65,1.69,7.34,2.66,11,.17.62.33,1.25.52,1.87.29.93.63,1.84,1,2.74a.06.06,0,0,0,.08,0A.06.06,0,0,0,324.39,295.69Z" transform="translate(-37.8 -67.98)"/><path class="cls-5" d="M325.67,296.54c.12,0,.17.06.28,0a.84.84,0,0,0,.14-.06,11.94,11.94,0,0,1,3.32-.85c1.92-.24,3.88-.2,5.85-.47,3.61-.51,7.21-1.11,10.77-1.87a104.65,104.65,0,0,0,10.55-2.85s.05,0,0-.08a.07.07,0,0,0-.08,0c-3.49,1-7,1.87-10.59,2.56s-7.16,1.27-10.76,1.73c-2.31.31-4.62.17-6.83.62a5.4,5.4,0,0,0-2.56.87,1.15,1.15,0,0,0-.19.28.07.07,0,1,0,.06.12Z" transform="translate(-37.8 -67.98)"/><path class="cls-6" d="M139.81,331.8c-3.51,1.17-5.15,5.71-3.67,10.15S148,362.59,148.48,362.5c.7-.12,1.84-20.35.36-24.78S143.31,330.63,139.81,331.8Z" transform="translate(-37.8 -67.98)"/><path class="cls-6" d="M120.9,327.12c-3.46,1.3-4.93,5.9-3.28,10.28s12.61,20.17,13.13,20.06c.69-.14,1.05-20.39-.6-24.76S124.36,325.83,120.9,327.12Z" transform="translate(-37.8 -67.98)"/><path class="cls-6" d="M98.93,308.63c-3.79.75-6.11,5.16-5.18,9.83s9.39,22.32,10,22.29c.73,0,4.67-20.37,3.74-25S102.7,307.87,98.93,308.63Z" transform="translate(-37.8 -67.98)"/><path class="cls-6" d="M72.26,299.48c-3.63,2.68-3.94,8.36-.69,12.69s20.79,18.22,21.36,17.91c.77-.41-5-23.26-8.22-27.59S75.88,296.81,72.26,299.48Z" transform="translate(-37.8 -67.98)"/><path class="cls-6" d="M71.64,336.69c-.32,4.13,3.28,7.74,8,8.07s24.07-3.57,24.19-4.16c.17-.77-18.29-10.44-23-10.77S72,332.58,71.64,336.69Z" transform="translate(-37.8 -67.98)"/><path class="cls-6" d="M97.35,356.48c.29,4.12,4.38,7.18,9.12,6.82s23.31-7,23.35-7.6c.05-.79-19.65-7.68-24.4-7.32S97.06,352.37,97.35,356.48Z" transform="translate(-37.8 -67.98)"/><path class="cls-6" d="M118,372.05c1.49,3.85,6.3,5.59,10.75,3.88s20.28-13.4,20.15-14c-.19-.77-21.11-1.67-25.55,0S116.47,368.21,118,372.05Z" transform="translate(-37.8 -67.98)"/><path class="cls-5" d="M77.43,306.87c-.45.4-.22-.3-.33.3,0,.14.12.26.19.4q1.13,2.28,2.31,4.46a106.7,106.7,0,0,0,8.17,12.69,99.34,99.34,0,0,0,25.7,23.95,103.79,103.79,0,0,0,25.31,11.87,123,123,0,0,0,27.42,5.07.45.45,0,0,0,.09-.9,131.33,131.33,0,0,1-26.94-5.93,110.42,110.42,0,0,1-24.87-11.67A101.19,101.19,0,0,1,89,323.76a116,116,0,0,1-8.37-12.33q-1.25-2.12-2.45-4.33c-.07-.13-.08-.33-.21-.39-.55-.25.15,0-.44.1a.07.07,0,0,0-.09,0A.08.08,0,0,0,77.43,306.87Z" transform="translate(-37.8 -67.98)"/><path class="cls-5" d="M103.14,339c-.24-2.14-.35-4.29-.46-6.44-.16-3.23-.28-6.46-.51-9.69-.11-1.62-.22-3.24-.46-4.84-.11-.69-.26-1.36-.41-2a.1.1,0,0,0-.12-.09.12.12,0,0,0-.09.12c.07.61.09,1.22.16,1.84.54,5.51.67,11.06,1.17,16.57.14,1.53.35,3.06.59,4.58a.07.07,0,0,0,.07.06A.06.06,0,0,0,103.14,339Z" transform="translate(-37.8 -67.98)"/><path class="cls-5" d="M102.72,340.18c0-.15.08-.06,0-.17s-.17,0-.25,0a27.18,27.18,0,0,0-2.85-.26c-2.45-.1-4.93.07-7.36,0-3.73-.11-7.48-.44-11.22-.49-1.61,0-3.21,0-4.82.15a.08.08,0,0,0-.07.08s0,.06.08.06c2.13,0,4.26.07,6.4.2,3.2.18,6.41.43,9.61.57s6.32-.17,9.45.11l.93.09s0,0,.06,0c.19-.11,0,.05.06-.15a.08.08,0,0,0,.08-.06A.07.07,0,0,0,102.72,340.18Z" transform="translate(-37.8 -67.98)"/><path class="cls-5" d="M129.46,355.11c-.14-.85-.26-1.7-.42-2.55a79,79,0,0,0-2.61-10A49.75,49.75,0,0,0,123,334.7a.08.08,0,0,0-.11,0,.08.08,0,0,0,0,.11,54.09,54.09,0,0,1,3.15,8c1,3.25,1.79,6.59,2.57,9.94.2.83.42,1.66.62,2.49a.13.13,0,0,0,.14.09A.11.11,0,0,0,129.46,355.11Z" transform="translate(-37.8 -67.98)"/><path class="cls-5" d="M128.31,355a.33.33,0,0,0-.13,0,5.69,5.69,0,0,0-1.08.09c-.92.06-1.86.08-2.8.07-2,0-4.07-.15-6-.12-3.77.08-7.58.21-11.38.13a57.45,57.45,0,0,1-7.54-.56.1.1,0,0,0,0,.2,53.42,53.42,0,0,0,7.57.82c3.8.15,7.62,0,11.4-.08,2.3,0,4.71.16,7.06.06.61,0,1.22-.07,1.82-.15a4.22,4.22,0,0,0,1.08-.21.44.44,0,0,0,.11-.08.08.08,0,0,0,.06-.08A.07.07,0,0,0,128.31,355Z" transform="translate(-37.8 -67.98)"/><path class="cls-5" d="M147.92,361.57c-.11-.85-.22-1.71-.38-2.56-.1-.56-.24-1.12-.37-1.68-.77-3.26-1.7-6.49-2.54-9.72-.76-2.89-1.39-5.9-2.27-8.81-.39-1.25-.83-2.48-1.32-3.67a.14.14,0,0,0-.19-.08.13.13,0,0,0-.08.18c.58,1.6,1.06,3.27,1.5,4.95.66,2.52,1.26,5.07,1.91,7.54l3.61,13.88a.07.07,0,0,0,.08,0A.06.06,0,0,0,147.92,361.57Z" transform="translate(-37.8 -67.98)"/><path class="cls-5" d="M147.15,362.68c-.11-.06-.16-.13-.28-.15a4.74,4.74,0,0,0-2.4.39c-1.95.59-3.72,1.68-5.69,2.41-3.67,1.41-7.38,2.69-11.14,3.79-2.52.74-5,1.39-7.62,1.92a.07.07,0,0,0,0,.14,97.37,97.37,0,0,0,9.59-2.23c3.15-.91,6.26-2,9.35-3.09,1.68-.63,3.22-1.49,4.84-2.12a10.66,10.66,0,0,1,3-.74.78.78,0,0,0,.14,0c.1,0,.11-.1.2-.17a.06.06,0,0,0,.06-.06A.07.07,0,0,0,147.15,362.68Z" transform="translate(-37.8 -67.98)"/><path class="cls-5" d="M98.7,250a4.54,4.54,0,0,0,.6.77,17.37,17.37,0,0,0,3,1.63c1.52.83,3,1.67,4.49,2.54a88.72,88.72,0,0,1,9.92,6.75,76.54,76.54,0,0,1,12.15,12.06c.63.78,1.24,1.57,1.89,2.35.29.33.59.64.88,1a.25.25,0,0,0,.42-.28c-.19-.4-.37-.8-.58-1.19-.5-.89-1.09-1.73-1.67-2.56a63.43,63.43,0,0,0-12.1-12.59,74.42,74.42,0,0,0-10.15-6.83q-2.28-1.27-4.66-2.4a13.32,13.32,0,0,0-3.2-1.39,4.06,4.06,0,0,0-1,0,.06.06,0,0,0-.08,0A.07.07,0,0,0,98.7,250Z" transform="translate(-37.8 -67.98)"/><path class="cls-5" d="M124.12,252.88c.23-.22.34-.23.52-.49a.29.29,0,0,0,0-.13,11.34,11.34,0,0,0,.22-1.55,106.72,106.72,0,0,1,4.4-19.5A110.46,110.46,0,0,1,138.45,211c.63-1.13,1.27-2.26,1.9-3.4,1-1.69,1.91-3.38,3-5a39.74,39.74,0,0,1,3.93-5.12.22.22,0,0,0,0-.32.22.22,0,0,0-.31,0,42.81,42.81,0,0,0-5.38,6.19c-1.59,2.22-3,4.55-4.45,6.87a108.09,108.09,0,0,0-9.26,20.53,92,92,0,0,0-4.18,19.84,9.23,9.23,0,0,0-.12,1.57.59.59,0,0,0,0,.14,2.39,2.39,0,0,0,.42.58.08.08,0,0,0,.06.08A.07.07,0,0,0,124.12,252.88Z" transform="translate(-37.8 -67.98)"/><path class="cls-5" d="M144.9,293c.07-.3.2-.3.16-.61s-.29-.58-.42-.89a18.3,18.3,0,0,1-1.33-4.92,36.9,36.9,0,0,1-.18-7.77A63.92,63.92,0,0,1,144.86,268a51.2,51.2,0,0,1,3.58-10.26,28.4,28.4,0,0,1,2.08-3.51c1.16-1.73,2.43-3.4,3.66-5a.18.18,0,0,0,0-.25.17.17,0,0,0-.25,0c-1.42,1.5-2.93,3-4.26,4.63a25.14,25.14,0,0,0-2.4,3.52,49.87,49.87,0,0,0-3.94,10.49,58.12,58.12,0,0,0-1.84,11,34.12,34.12,0,0,0,.4,8.11,17.77,17.77,0,0,0,1.72,5.2c.18.32.27.72.56.93s.33.08.64.13a.06.06,0,0,0,.09,0A.07.07,0,0,0,144.9,293Z" transform="translate(-37.8 -67.98)"/><path class="cls-5" d="M179.13,308.92c-1.51-.54-2.92-1.16-4.35-1.66-16.83-5.86-28-12.16-35.37-20.45-7.56-8.55-11.26-18.38-13.8-28.62-2.61-10.49-4-21.39-7.09-31.74-2.83-9.55-7-18.72-14.87-26.48a55.72,55.72,0,0,0-10.43-7.91.28.28,0,1,0-.3.48,61.13,61.13,0,0,1,9.77,8.38c7.44,7.83,11.58,16.64,14.29,26,3,10.35,4.37,21.23,7,31.7s6.43,20.57,14.26,29.27c7.54,8.38,18.59,16.29,36.26,20.41,1.49.35,3,.53,4.61.77,0,0,.08,0,.08-.05A.07.07,0,0,0,179.13,308.92Z" transform="translate(-37.8 -67.98)"/><path class="cls-7" d="M93.1,192.59s11,4.46,15.82,8.92.08,9.49-5.18,4.9C99,202.26,93.1,192.59,93.1,192.59Z" transform="translate(-37.8 -67.98)"/><path class="cls-7" d="M93.05,191s4.29-10.89,8.68-15.62,9.52.08,5,5.24C102.65,185.33,93.05,191,93.05,191Z" transform="translate(-37.8 -67.98)"/><path class="cls-7" d="M92.63,190.7s-1-11.74.82-18,8.51-4.11,6.77,2.55C98.65,181.32,92.63,190.7,92.63,190.7Z" transform="translate(-37.8 -67.98)"/><path class="cls-7" d="M91.44,191.84s-11.62,1.83-18,.47-5-8.15,1.83-6.91C81.44,186.53,91.44,191.84,91.44,191.84Z" transform="translate(-37.8 -67.98)"/><path class="cls-7" d="M91.84,192.42s-9.12,7.31-15.31,9.25-8.33-4.72-1.82-7C80.6,192.65,91.84,192.42,91.84,192.42Z" transform="translate(-37.8 -67.98)"/><path class="cls-7" d="M93.22,193.4s7.22,9.43,9.09,15.69-4.82,8.1-7,1.5C93.32,204.63,93.22,193.4,93.22,193.4Z" transform="translate(-37.8 -67.98)"/><path class="cls-7" d="M92.06,191.4s-11-4.46-15.81-8.92-.08-9.49,5.17-4.9C86.18,181.73,92.06,191.4,92.06,191.4Z" transform="translate(-37.8 -67.98)"/><path class="cls-7" d="M92.26,192.78s-4.29,10.9-8.68,15.63-9.52-.08-5-5.25C82.66,198.49,92.26,192.78,92.26,192.78Z" transform="translate(-37.8 -67.98)"/><path class="cls-7" d="M92.41,193.13s1.73,11.67.3,18-8.22,4.63-6.91-2.13C87,202.87,92.41,193.13,92.41,193.13Z" transform="translate(-37.8 -67.98)"/><path class="cls-7" d="M93,192s11.62-1.84,18-.48,5,8.15-1.83,6.91C103,197.32,93,192,93,192Z" transform="translate(-37.8 -67.98)"/><path class="cls-7" d="M93.25,191.54s9.12-7.31,15.31-9.25,8.33,4.72,1.82,7C104.49,191.3,93.25,191.54,93.25,191.54Z" transform="translate(-37.8 -67.98)"/><path class="cls-7" d="M92.54,191.42s-7.22-9.43-9.09-15.69,4.82-8.1,7-1.5C92.43,180.19,92.54,191.42,92.54,191.42Z" transform="translate(-37.8 -67.98)"/><path class="cls-5" d="M79.12,180.38a1.78,1.78,0,0,0,.21.27,19,19,0,0,0,2.41,1.66c1.33.91,2.67,1.84,3.93,2.84a28.33,28.33,0,0,1,2.59,2.28.17.17,0,0,0,.22,0,.16.16,0,0,0,0-.22,27.09,27.09,0,0,0-4.32-3.94c-1.42-1-3-1.95-4.42-2.82a1.23,1.23,0,0,0-.25-.14,1.7,1.7,0,0,0-.31-.06.06.06,0,0,0-.09,0A.07.07,0,0,0,79.12,180.38Z" transform="translate(-37.8 -67.98)"/><path class="cls-5" d="M75.31,189.55c.25.13.49.27.74.38a18.63,18.63,0,0,0,3.17.95c2,.46,4,.7,6.07,1a.17.17,0,0,0,.2-.14.18.18,0,0,0-.14-.21c-2-.39-4-.75-6-1.18-1.06-.23-2.1-.52-3.16-.79-.27-.07-.54-.11-.81-.17a.05.05,0,0,0-.08,0A.06.06,0,0,0,75.31,189.55Z" transform="translate(-37.8 -67.98)"/><path class="cls-5" d="M77.4,197.7c1.34-.55,2.66-1.1,3.94-1.75,1.92-1,3.75-2.09,5.6-3.21a.15.15,0,0,0,0-.19.14.14,0,0,0-.19-.05c-1.25.71-2.49,1.41-3.75,2.09-.94.51-1.9,1-2.85,1.49s-1.89,1-2.85,1.49a.07.07,0,0,0,0,.09A.09.09,0,0,0,77.4,197.7Z" transform="translate(-37.8 -67.98)"/><path class="cls-5" d="M81.9,206.36c.14-.16.29-.31.42-.47a51.88,51.88,0,0,0,3.2-4.66c1.14-1.75,2.29-3.5,3.52-5.18.62-.84,1.24-1.67,1.92-2.46a.06.06,0,0,0-.08-.08,33,33,0,0,0-3.06,3.6c-1.93,2.65-3.55,5.57-5.43,8.24a4.34,4.34,0,0,0-.57.8.3.3,0,0,0,0,.13.06.06,0,0,0,0,.09A.07.07,0,0,0,81.9,206.36Z" transform="translate(-37.8 -67.98)"/><path class="cls-5" d="M88.65,209.4c.09-.05.14,0,.21-.11A1,1,0,0,0,89,209c.51-1.27,1-2.57,1.37-3.88,1-3.38,1.82-6.84,2.92-10.21a.12.12,0,0,0-.07-.15.12.12,0,0,0-.16.07c-.87,2.38-1.65,4.79-2.37,7.22-.65,2.17-1.28,4.36-2,6.51a1.74,1.74,0,0,0-.17.5.84.84,0,0,0,.07.26s0,.08,0,.09A.06.06,0,0,0,88.65,209.4Z" transform="translate(-37.8 -67.98)"/><path class="cls-5" d="M97.94,208.91,94.4,197a.11.11,0,0,0-.13-.07.1.1,0,0,0-.07.13c.65,2.4,1.23,4.84,1.94,7.23.48,1.61,1,3.18,1.61,4.74a.1.1,0,0,0,.13.06A.1.1,0,0,0,97.94,208.91Z" transform="translate(-37.8 -67.98)"/><path class="cls-5" d="M104.77,203.73c-.16-.27-.32-.55-.51-.81a27.49,27.49,0,0,0-2.52-2.88c-2.56-2.66-5.41-5.08-7.86-7.84a.09.09,0,0,0-.14.12c2.38,2.82,5.12,5.36,7.66,8,.87.92,1.69,1.89,2.53,2.83.21.24.43.46.65.69a.12.12,0,0,0,.17,0A.13.13,0,0,0,104.77,203.73Z" transform="translate(-37.8 -67.98)"/><path class="cls-5" d="M111.14,195.12c-.07-.07-.09-.12-.17-.17a2.28,2.28,0,0,0-.45-.11,49.48,49.48,0,0,1-5.65-1.75c-3.14-1.14-6.27-2.45-9.22-3.62a.12.12,0,0,0-.14.06.1.1,0,0,0,.06.13c2.92,1.26,6,2.76,9.12,3.93a36.24,36.24,0,0,0,5.74,1.67,1.48,1.48,0,0,0,.46.08c.1,0,.13-.06.22-.09a.07.07,0,0,0,0-.13Z" transform="translate(-37.8 -67.98)"/><path class="cls-5" d="M108.56,186.63c-.71.09-1.42.16-2.13.29-1.64.28-3.27.69-4.88,1.12-2.3.62-4.57,1.37-6.81,2.18a.11.11,0,0,0-.07.14.1.1,0,0,0,.13.06c1.82-.58,3.65-1.08,5.49-1.57s3.87-1,5.81-1.44c.83-.21,1.65-.45,2.49-.65a.07.07,0,0,0,0-.08A.06.06,0,0,0,108.56,186.63Z" transform="translate(-37.8 -67.98)"/><path class="cls-5" d="M104.3,177.35c-.49.44-1,.88-1.46,1.35a44.24,44.24,0,0,0-3.09,3.47,95.23,95.23,0,0,0-5.81,8.07.12.12,0,0,0,0,.17.13.13,0,0,0,.17,0q2.34-3.4,4.9-6.65c1-1.3,2.1-2.55,3.18-3.8.72-.84,1.43-1.68,2.18-2.49a.07.07,0,0,0,0-.09A.07.07,0,0,0,104.3,177.35Z" transform="translate(-37.8 -67.98)"/><path class="cls-5" d="M97.69,173.12c-.17.4-.36.79-.53,1.19-.37.94-.7,1.9-1,2.86-1.12,3.19-2.19,6.39-3.28,9.59A.17.17,0,0,0,93,187a.17.17,0,0,0,.21-.1c1.14-3.18,2.34-6.34,3.43-9.54.32-1,.66-1.91.93-2.89.12-.42.21-.85.3-1.27a.07.07,0,0,0,0-.1A.09.09,0,0,0,97.69,173.12Z" transform="translate(-37.8 -67.98)"/><path class="cls-5" d="M87.55,174.74c.09.45.17.9.27,1.34.36,1.61.79,3.2,1.2,4.79.61,2.39,1.24,4.77,1.76,7.19a.13.13,0,0,0,.16.1.14.14,0,0,0,.11-.16q-.69-3.37-1.54-6.69c-.45-1.77-.91-3.54-1.42-5.3-.13-.44-.28-.87-.42-1.31,0,0,0,0-.08,0S87.54,174.7,87.55,174.74Z" transform="translate(-37.8 -67.98)"/><path class="cls-8" d="M86.28,186.66a7.85,7.85,0,1,0,11-.74A7.79,7.79,0,0,0,86.28,186.66Z" transform="translate(-37.8 -67.98)"/><path class="cls-7" d="M145.63,199s7.42,3,10.67,6,0,6.4-3.49,3.31C149.6,205.55,145.63,199,145.63,199Z" transform="translate(-37.8 -67.98)"/><path class="cls-7" d="M145.59,198s2.9-7.35,5.86-10.55,6.42.06,3.38,3.54C152.07,194.13,145.59,198,145.59,198Z" transform="translate(-37.8 -67.98)"/><path class="cls-7" d="M145.31,197.75s-.68-7.92.55-12.12,5.74-2.77,4.57,1.73C149.37,191.42,145.31,197.75,145.31,197.75Z" transform="translate(-37.8 -67.98)"/><path class="cls-7" d="M144.51,198.52s-7.85,1.24-12.16.32-3.38-5.5,1.23-4.66C137.76,194.94,144.51,198.52,144.51,198.52Z" transform="translate(-37.8 -67.98)"/><path class="cls-7" d="M144.78,198.91s-6.16,4.94-10.34,6.25-5.62-3.19-1.23-4.71C137.19,199.07,144.78,198.91,144.78,198.91Z" transform="translate(-37.8 -67.98)"/><path class="cls-7" d="M145.71,199.58s4.87,6.36,6.13,10.59-3.25,5.46-4.73,1C145.78,207.15,145.71,199.58,145.71,199.58Z" transform="translate(-37.8 -67.98)"/><path class="cls-7" d="M144.92,198.22s-7.42-3-10.67-6-.05-6.4,3.49-3.3C141,191.7,144.92,198.22,144.92,198.22Z" transform="translate(-37.8 -67.98)"/><path class="cls-7" d="M145.06,199.16s-2.9,7.35-5.86,10.55-6.42-.06-3.38-3.55C138.58,203,145.06,199.16,145.06,199.16Z" transform="translate(-37.8 -67.98)"/><path class="cls-7" d="M145.16,199.39s1.16,7.88.2,12.14-5.55,3.13-4.66-1.43C141.5,206,145.16,199.39,145.16,199.39Z" transform="translate(-37.8 -67.98)"/><path class="cls-7" d="M145.53,198.64s7.85-1.24,12.16-.32,3.38,5.5-1.23,4.66C152.28,202.22,145.53,198.64,145.53,198.64Z" transform="translate(-37.8 -67.98)"/><path class="cls-7" d="M145.73,198.32s6.15-4.93,10.33-6.24,5.62,3.18,1.23,4.7C153.31,198.16,145.73,198.32,145.73,198.32Z" transform="translate(-37.8 -67.98)"/><path class="cls-7" d="M145.25,198.24s-4.88-6.36-6.14-10.59,3.26-5.46,4.73-1C145.18,190.66,145.25,198.24,145.25,198.24Z" transform="translate(-37.8 -67.98)"/><path class="cls-5" d="M136.18,190.8a.59.59,0,0,0,.12.22,8.18,8.18,0,0,0,1.61,1.14c.89.62,1.79,1.24,2.65,1.91a19.69,19.69,0,0,1,1.76,1.51.17.17,0,0,0,.22,0,.16.16,0,0,0,0-.22,18.18,18.18,0,0,0-2.89-2.71,31.85,31.85,0,0,0-3-1.87,1.51,1.51,0,0,0-.17-.1.89.89,0,0,0-.23,0,.06.06,0,0,0-.09,0A.07.07,0,0,0,136.18,190.8Z" transform="translate(-37.8 -67.98)"/><path class="cls-5" d="M133.61,197c.17.1.32.21.49.29a10.61,10.61,0,0,0,2.14.66c1.34.32,2.72.46,4.1.68a.17.17,0,0,0,.21-.14.18.18,0,0,0-.15-.2l-6.74-1.42a.09.09,0,0,0-.09,0A.08.08,0,0,0,133.61,197Z" transform="translate(-37.8 -67.98)"/><path class="cls-5" d="M135,202.5c.91-.36,1.81-.71,2.68-1.14,1.3-.65,2.52-1.43,3.77-2.19a.14.14,0,1,0-.14-.24L135,202.37a.07.07,0,0,0,.06.13Z" transform="translate(-37.8 -67.98)"/><path class="cls-5" d="M138.09,208.33s.07,0,.1-.05a3.51,3.51,0,0,0,.57-.76c1.11-1.54,2.15-3.15,3.21-4.73a30.82,30.82,0,0,1,2.23-3.07.06.06,0,0,0-.09-.08A21.87,21.87,0,0,0,142,202c-1.32,1.79-2.39,3.77-3.65,5.58a2,2,0,0,0-.38.54.27.27,0,0,0,0,.09.08.08,0,0,0,0,.1A.08.08,0,0,0,138.09,208.33Z" transform="translate(-37.8 -67.98)"/><path class="cls-5" d="M142.64,210.38c.1,0,.11,0,.19-.06s0-.11.08-.17c.35-.85.67-1.73.94-2.61.7-2.29,1.19-4.63,1.92-6.91a.13.13,0,0,0-.07-.16.14.14,0,0,0-.16.08q-.91,2.4-1.65,4.86c-.45,1.46-.86,2.94-1.35,4.39a.85.85,0,0,0-.11.34c0,.1,0,.1.09.2a.06.06,0,0,0,0,.08A.05.05,0,0,0,142.64,210.38Z" transform="translate(-37.8 -67.98)"/><path class="cls-5" d="M148.92,210,146.53,202a.1.1,0,0,0-.12-.07.12.12,0,0,0-.08.13c.44,1.63.8,3.28,1.28,4.9.33,1.08.72,2.13,1.12,3.18a.1.1,0,0,0,.13.07A.1.1,0,0,0,148.92,210Z" transform="translate(-37.8 -67.98)"/><path class="cls-5" d="M153.54,206.53c-.11-.2-.21-.39-.33-.57a15.73,15.73,0,0,0-1.7-2c-1.73-1.8-3.67-3.41-5.33-5.26a.09.09,0,0,0-.14.12c.45.55.93,1.08,1.42,1.6,1.37,1.46,2.81,2.86,4.15,4.32.4.44.78.9,1.19,1.34.17.19.36.36.54.54a.12.12,0,0,0,.2-.14Z" transform="translate(-37.8 -67.98)"/><path class="cls-5" d="M157.8,200.71c0-.07,0-.09-.08-.14a1.19,1.19,0,0,0-.43-.12,41.34,41.34,0,0,1-4.73-1.54c-1.77-.67-3.53-1.38-5.2-2a.12.12,0,0,0-.14.06.1.1,0,0,0,.06.13c2,.87,4,1.91,6.14,2.7a22.27,22.27,0,0,0,3.89,1.12.84.84,0,0,0,.31,0c.09,0,.09-.06.16-.11a.07.07,0,0,0,.08-.05A.08.08,0,0,0,157.8,200.71Z" transform="translate(-37.8 -67.98)"/><path class="cls-5" d="M156.06,195c-.49.05-1,.08-1.45.16a29.12,29.12,0,0,0-3.3.75c-1.55.42-3.08,1-4.59,1.51a.12.12,0,0,0-.07.13.12.12,0,0,0,.14.07l9.29-2.49a.07.07,0,0,0,.06-.07A.08.08,0,0,0,156.06,195Z" transform="translate(-37.8 -67.98)"/><path class="cls-5" d="M153.17,188.73c-.34.29-.69.57-1,.89a26.11,26.11,0,0,0-2.1,2.34,61.52,61.52,0,0,0-3.9,5.46.12.12,0,0,0,0,.17.13.13,0,0,0,.17,0c1.06-1.52,2.17-3,3.33-4.47.69-.87,1.42-1.71,2.14-2.56.48-.57.94-1.15,1.44-1.71a.08.08,0,0,0,0-.09A.07.07,0,0,0,153.17,188.73Z" transform="translate(-37.8 -67.98)"/><path class="cls-5" d="M148.7,185.88c-.13.27-.27.52-.39.79-.27.63-.49,1.28-.72,1.93-.76,2.14-1.46,4.31-2.18,6.47a.17.17,0,0,0,.1.22.18.18,0,0,0,.22-.1c.77-2.15,1.6-4.27,2.33-6.43.22-.65.45-1.3.62-2,.07-.29.11-.58.16-.87a.07.07,0,0,0,0-.1A.09.09,0,0,0,148.7,185.88Z" transform="translate(-37.8 -67.98)"/><path class="cls-5" d="M141.86,187c.12.61.23,1.22.37,1.82.57,2.4,1.27,4.76,1.79,7.18a.13.13,0,0,0,.16.1.13.13,0,0,0,.1-.16c-.36-1.82-.76-3.63-1.25-5.42-.32-1.19-.7-2.36-1.05-3.55a.06.06,0,0,0-.08,0A.07.07,0,0,0,141.86,187Z" transform="translate(-37.8 -67.98)"/><path class="cls-8" d="M141,195a5.3,5.3,0,1,0,7.42-.5A5.25,5.25,0,0,0,141,195Z" transform="translate(-37.8 -67.98)"/><path class="cls-7" d="M96.62,251s8.9,3.61,12.8,7.22.07,7.68-4.19,4C101.38,258.86,96.62,251,96.62,251Z" transform="translate(-37.8 -67.98)"/><path class="cls-7" d="M96.58,249.78s3.47-8.82,7-12.65,7.7.07,4,4.25C104.35,245.16,96.58,249.78,96.58,249.78Z" transform="translate(-37.8 -67.98)"/><path class="cls-7" d="M96.24,249.51s-.81-9.5.66-14.53,6.89-3.33,5.48,2.06C101.11,241.92,96.24,249.51,96.24,249.51Z" transform="translate(-37.8 -67.98)"/><path class="cls-7" d="M95.28,250.43s-9.41,1.49-14.58.38-4-6.6,1.48-5.59C87.18,246.13,95.28,250.43,95.28,250.43Z" transform="translate(-37.8 -67.98)"/><path class="cls-7" d="M95.6,250.9s-7.38,5.92-12.39,7.49-6.75-3.82-1.48-5.65C86.5,251.09,95.6,250.9,95.6,250.9Z" transform="translate(-37.8 -67.98)"/><path class="cls-7" d="M96.72,251.7s5.84,7.63,7.36,12.69-3.91,6.56-5.68,1.22C96.8,260.78,96.72,251.7,96.72,251.7Z" transform="translate(-37.8 -67.98)"/><path class="cls-7" d="M95.78,250.07s-8.9-3.6-12.8-7.22-.06-7.68,4.19-4C91,242.25,95.78,250.07,95.78,250.07Z" transform="translate(-37.8 -67.98)"/><path class="cls-7" d="M95.94,251.2s-3.47,8.81-7,12.64-7.7-.06-4-4.24C88.17,255.81,95.94,251.2,95.94,251.2Z" transform="translate(-37.8 -67.98)"/><path class="cls-7" d="M96.06,251.47s1.4,9.45.24,14.56-6.65,3.76-5.59-1.72C91.68,259.36,96.06,251.47,96.06,251.47Z" transform="translate(-37.8 -67.98)"/><path class="cls-7" d="M96.51,250.58s9.4-1.49,14.58-.39,4,6.6-1.48,5.59C104.6,254.87,96.51,250.58,96.51,250.58Z" transform="translate(-37.8 -67.98)"/><path class="cls-7" d="M96.74,250.19s7.38-5.92,12.39-7.49,6.75,3.82,1.48,5.64C105.84,250,96.74,250.19,96.74,250.19Z" transform="translate(-37.8 -67.98)"/><path class="cls-7" d="M96.17,250.09s-5.85-7.63-7.36-12.7,3.9-6.55,5.67-1.21C96.08,241,96.17,250.09,96.17,250.09Z" transform="translate(-37.8 -67.98)"/><path class="cls-5" d="M85.3,241.16a1.28,1.28,0,0,0,.15.25,13.4,13.4,0,0,0,1.94,1.35c1.08.74,2.16,1.49,3.18,2.29a25,25,0,0,1,2.11,1.83.16.16,0,0,0,.23-.21,21.28,21.28,0,0,0-3.48-3.21,38,38,0,0,0-3.6-2.27.78.78,0,0,0-.2-.11,1.22,1.22,0,0,0-.26,0,.07.07,0,1,0-.07.11Z" transform="translate(-37.8 -67.98)"/><path class="cls-5" d="M82.22,248.59c.2.12.38.23.59.33a13.73,13.73,0,0,0,2.56.78c1.62.37,3.27.56,4.92.83a.18.18,0,0,0,.21-.14.19.19,0,0,0-.15-.21c-1.63-.32-3.26-.62-4.87-1-.85-.19-1.69-.42-2.55-.63-.22-.05-.44-.07-.66-.11a.06.06,0,0,0-.09,0A.07.07,0,0,0,82.22,248.59Z" transform="translate(-37.8 -67.98)"/><path class="cls-5" d="M83.92,255.18c1.08-.43,2.16-.87,3.2-1.39,1.55-.78,3-1.7,4.53-2.61a.15.15,0,0,0,0-.19.14.14,0,0,0-.19-.05l-7.65,4.12a.08.08,0,0,0,0,.09A.07.07,0,0,0,83.92,255.18Z" transform="translate(-37.8 -67.98)"/><path class="cls-5" d="M87.57,262.19c.12-.13.24-.24.35-.37a41.28,41.28,0,0,0,2.6-3.77c.92-1.42,1.85-2.83,2.84-4.19.49-.68,1-1.36,1.54-2a0,0,0,0,0,0-.07.06.06,0,0,0-.08,0,26.49,26.49,0,0,0-2.49,2.89c-1.57,2.15-2.87,4.52-4.39,6.68a3.2,3.2,0,0,0-.46.65.21.21,0,0,0,0,.11.07.07,0,0,0,.11.08Z" transform="translate(-37.8 -67.98)"/><path class="cls-5" d="M93,264.65c.1,0,.13,0,.2-.08a.78.78,0,0,0,.09-.21c.42-1,.79-2.08,1.12-3.14.84-2.74,1.45-5.54,2.33-8.27a.13.13,0,0,0-.07-.16.12.12,0,0,0-.15.08c-.73,1.92-1.37,3.87-2,5.83-.53,1.76-1,3.53-1.63,5.27a1.42,1.42,0,0,0-.14.41c0,.1.05.12.09.22s0,.08,0,.09A.07.07,0,0,0,93,264.65Z" transform="translate(-37.8 -67.98)"/><path class="cls-5" d="M100.56,264.25l-2.87-9.69a.11.11,0,0,0-.13-.07.1.1,0,0,0-.07.13c.52,1.95,1,3.93,1.55,5.86.39,1.3.85,2.57,1.32,3.83a.1.1,0,0,0,.13.06A.09.09,0,0,0,100.56,264.25Z" transform="translate(-37.8 -67.98)"/><path class="cls-5" d="M106.09,260c-.14-.22-.26-.45-.41-.66a20.51,20.51,0,0,0-2-2.34c-2.08-2.16-4.39-4.1-6.38-6.33a.09.09,0,0,0-.13,0,.1.1,0,0,0,0,.14c.55.65,1.12,1.29,1.71,1.91,1.65,1.74,3.38,3.41,5,5.17.49.53.94,1.08,1.42,1.6.21.23.43.45.64.67a.12.12,0,0,0,.17,0A.13.13,0,0,0,106.09,260Z" transform="translate(-37.8 -67.98)"/><path class="cls-5" d="M111.22,253.07c-.06-.07-.06-.11-.13-.16a1.46,1.46,0,0,0-.36-.09,45.22,45.22,0,0,1-4.57-1.42c-2.54-.92-5.08-2-7.47-2.9a.1.1,0,0,0-.13.05.11.11,0,0,0,0,.14c2.36,1,4.83,2.26,7.37,3.21a29.93,29.93,0,0,0,4.66,1.34,1.19,1.19,0,0,0,.37.06c.09,0,.11-.05.19-.1a.05.05,0,0,0,.07,0A.06.06,0,0,0,111.22,253.07Z" transform="translate(-37.8 -67.98)"/><path class="cls-5" d="M109.13,246.2c-.58.06-1.15.11-1.73.21-1.33.22-2.65.55-4,.9-1.87.51-3.7,1.13-5.51,1.79a.12.12,0,0,0-.07.14.11.11,0,0,0,.14.06c1.47-.46,2.95-.86,4.44-1.25s3.13-.77,4.7-1.17c.67-.17,1.33-.37,2-.55a.07.07,0,0,0,0-.13Z" transform="translate(-37.8 -67.98)"/><path class="cls-5" d="M105.68,238.69c-.41.36-.82.71-1.2,1.09a33.4,33.4,0,0,0-2.51,2.8,74.94,74.94,0,0,0-4.69,6.54.13.13,0,0,0,0,.18.13.13,0,0,0,.17,0c1.27-1.83,2.59-3.62,4-5.37.83-1,1.7-2.06,2.57-3.07.58-.68,1.14-1.37,1.74-2a.06.06,0,0,0,0-.09A.06.06,0,0,0,105.68,238.69Z" transform="translate(-37.8 -67.98)"/><path class="cls-5" d="M100.33,235.28c-.15.32-.32.63-.46,1-.31.75-.57,1.53-.84,2.3-.91,2.58-1.76,5.18-2.64,7.77a.17.17,0,0,0,.32.11c.92-2.58,1.91-5.13,2.79-7.71.26-.78.53-1.56.74-2.35.09-.34.15-.69.23-1a.07.07,0,0,0-.14,0Z" transform="translate(-37.8 -67.98)"/><path class="cls-5" d="M92.11,236.59c.16.73.3,1.46.47,2.17.69,2.88,1.52,5.71,2.14,8.61a.13.13,0,0,0,.16.11.13.13,0,0,0,.1-.16c-.44-2.19-.92-4.35-1.5-6.49-.39-1.43-.83-2.84-1.24-4.27a.06.06,0,0,0-.08-.05A.07.07,0,0,0,92.11,236.59Z" transform="translate(-37.8 -67.98)"/><path class="cls-8" d="M91.1,246.24a6.35,6.35,0,1,0,8.89-.6A6.3,6.3,0,0,0,91.1,246.24Z" transform="translate(-37.8 -67.98)"/><path class="cls-7" d="M155.6,249.44s10,4.07,14.44,8.15.08,8.67-4.73,4.48C161,258.27,155.6,249.44,155.6,249.44Z" transform="translate(-37.8 -67.98)"/><path class="cls-7" d="M155.55,248s3.92-10,7.93-14.28,8.69.07,4.57,4.79C164.32,242.81,155.55,248,155.55,248Z" transform="translate(-37.8 -67.98)"/><path class="cls-7" d="M155.16,247.71s-.91-10.73.75-16.4,7.77-3.76,6.19,2.32C160.66,239.14,155.16,247.71,155.16,247.71Z" transform="translate(-37.8 -67.98)"/><path class="cls-7" d="M154.08,248.75s-10.62,1.68-16.47.44-4.57-7.45,1.68-6.32C144.94,243.9,154.08,248.75,154.08,248.75Z" transform="translate(-37.8 -67.98)"/><path class="cls-7" d="M154.44,249.28s-8.33,6.68-14,8.46-7.62-4.31-1.67-6.38C144.17,249.5,154.44,249.28,154.44,249.28Z" transform="translate(-37.8 -67.98)"/><path class="cls-7" d="M155.7,250.18s6.6,8.62,8.31,14.34-4.41,7.4-6.41,1.37C155.8,260.44,155.7,250.18,155.7,250.18Z" transform="translate(-37.8 -67.98)"/><path class="cls-7" d="M154.64,248.35s-10-4.07-14.45-8.15-.07-8.67,4.73-4.48C149.27,239.52,154.64,248.35,154.64,248.35Z" transform="translate(-37.8 -67.98)"/><path class="cls-7" d="M154.82,249.62s-3.92,9.95-7.93,14.27-8.69-.07-4.57-4.79C146.05,254.83,154.82,249.62,154.82,249.62Z" transform="translate(-37.8 -67.98)"/><path class="cls-7" d="M155,249.93s1.58,10.66.27,16.44-7.51,4.24-6.31-1.94C150,258.84,155,249.93,155,249.93Z" transform="translate(-37.8 -67.98)"/><path class="cls-7" d="M155.46,248.92s10.62-1.68,16.47-.44,4.57,7.45-1.68,6.31C164.6,253.77,155.46,248.92,155.46,248.92Z" transform="translate(-37.8 -67.98)"/><path class="cls-7" d="M155.73,248.48s8.33-6.68,14-8.45,7.61,4.31,1.66,6.37C166,248.26,155.73,248.48,155.73,248.48Z" transform="translate(-37.8 -67.98)"/><path class="cls-7" d="M155.08,248.37s-6.6-8.62-8.31-14.34,4.41-7.39,6.41-1.37C155,238.11,155.08,248.37,155.08,248.37Z" transform="translate(-37.8 -67.98)"/><path class="cls-5" d="M142.81,238.28a1.74,1.74,0,0,0,.19.26,16.38,16.38,0,0,0,2.19,1.52c1.22.83,2.44,1.68,3.59,2.6a25,25,0,0,1,2.38,2.07.16.16,0,0,0,.22,0,.17.17,0,0,0,0-.22,25.14,25.14,0,0,0-3.94-3.61c-1.3-.95-2.7-1.77-4-2.57-.08,0-.15-.1-.23-.13a2.54,2.54,0,0,0-.29,0,.07.07,0,1,0-.07.11Z" transform="translate(-37.8 -67.98)"/><path class="cls-5" d="M139.34,246.67a7.06,7.06,0,0,0,.67.35,16.32,16.32,0,0,0,2.89.88c1.82.41,3.68.63,5.55.94a.17.17,0,1,0,.06-.34c-1.85-.36-3.68-.7-5.5-1.09-1-.21-1.92-.48-2.89-.72-.24-.06-.49-.09-.74-.15a.07.07,0,0,0-.08,0S139.3,246.65,139.34,246.67Z" transform="translate(-37.8 -67.98)"/><path class="cls-5" d="M141.25,254.11c1.22-.49,2.43-1,3.6-1.58,1.76-.89,3.43-1.92,5.12-2.94a.16.16,0,0,0,.05-.19.14.14,0,0,0-.19-.05c-1.14.65-2.28,1.28-3.43,1.9-.86.47-1.74.91-2.61,1.36s-1.72.94-2.6,1.38c0,0,0,0,0,.09A.06.06,0,0,0,141.25,254.11Z" transform="translate(-37.8 -67.98)"/><path class="cls-5" d="M145.36,262c.13-.14.27-.27.39-.42a45.21,45.21,0,0,0,2.93-4.26c1-1.6,2.09-3.2,3.21-4.73.56-.77,1.13-1.53,1.75-2.25a.06.06,0,1,0-.08-.08,28.34,28.34,0,0,0-2.8,3.28c-1.78,2.42-3.25,5.09-5,7.54a3.73,3.73,0,0,0-.52.73.41.41,0,0,0,0,.11.08.08,0,0,0,0,.1A.07.07,0,0,0,145.36,262Z" transform="translate(-37.8 -67.98)"/><path class="cls-5" d="M151.53,264.81c.09-.05.14,0,.21-.11a.79.79,0,0,0,.09-.23c.48-1.16.89-2.35,1.26-3.54.95-3.1,1.65-6.26,2.66-9.34a.12.12,0,0,0-.08-.15.11.11,0,0,0-.15.07c-.81,2.18-1.52,4.38-2.19,6.59-.59,2-1.16,4-1.84,5.95a1.93,1.93,0,0,0-.16.46c0,.11,0,.14.08.25a.06.06,0,0,0,0,.08A.06.06,0,0,0,151.53,264.81Z" transform="translate(-37.8 -67.98)"/><path class="cls-5" d="M160,264.35l-3.23-10.93a.12.12,0,0,0-.13-.07.1.1,0,0,0-.07.13c.59,2.2,1.11,4.43,1.76,6.62.44,1.46,1,2.9,1.48,4.32a.1.1,0,0,0,.13.06A.1.1,0,0,0,160,264.35Z" transform="translate(-37.8 -67.98)"/><path class="cls-5" d="M166.27,259.62c-.16-.26-.3-.51-.47-.75a24.89,24.89,0,0,0-2.3-2.63c-2.34-2.44-4.95-4.64-7.19-7.16a.09.09,0,1,0-.14.12c2.17,2.58,4.67,4.9,7,7.36.8.84,1.54,1.72,2.31,2.58.19.21.4.41.6.63a.12.12,0,0,0,.17,0A.12.12,0,0,0,166.27,259.62Z" transform="translate(-37.8 -67.98)"/><path class="cls-5" d="M172.08,251.75c-.07-.07-.08-.12-.16-.17a1.37,1.37,0,0,0-.41-.1,46.84,46.84,0,0,1-5.15-1.6c-2.87-1-5.74-2.24-8.44-3.3a.1.1,0,0,0-.13.06.1.1,0,0,0,.05.13c2.67,1.16,5.47,2.54,8.33,3.6a33,33,0,0,0,5.26,1.53,1.42,1.42,0,0,0,.42.07c.09,0,.12-.06.2-.09a.08.08,0,0,0,.08-.06S172.11,251.75,172.08,251.75Z" transform="translate(-37.8 -67.98)"/><path class="cls-5" d="M169.72,244c-.65.07-1.3.14-1.95.25-1.5.26-3,.63-4.46,1-2.11.57-4.17,1.26-6.23,2a.1.1,0,0,0-.06.13.12.12,0,0,0,.13.07c1.66-.53,3.34-1,5-1.43s3.54-.88,5.31-1.32c.76-.19,1.51-.41,2.27-.6a.08.08,0,0,0,.06-.08A.06.06,0,0,0,169.72,244Z" transform="translate(-37.8 -67.98)"/><path class="cls-5" d="M165.83,235.51c-.46.4-.92.8-1.35,1.23a40.74,40.74,0,0,0-2.83,3.17,89.23,89.23,0,0,0-5.3,7.37.13.13,0,0,0,0,.18.12.12,0,0,0,.17,0c1.43-2.06,2.92-4.1,4.49-6.07.93-1.18,1.92-2.33,2.9-3.47.66-.76,1.3-1.54,2-2.28a.06.06,0,0,0,0-.09A.06.06,0,0,0,165.83,235.51Z" transform="translate(-37.8 -67.98)"/><path class="cls-5" d="M159.78,231.65c-.16.36-.34.71-.49,1.08-.35.86-.64,1.74-.95,2.61-1,2.91-2,5.84-3,8.76a.18.18,0,0,0,.11.22.17.17,0,0,0,.21-.1c1-2.91,2.14-5.79,3.14-8.71.3-.88.61-1.76.85-2.65.11-.39.18-.78.26-1.17a.06.06,0,0,0,0-.09A.09.09,0,0,0,159.78,231.65Z" transform="translate(-37.8 -67.98)"/><path class="cls-5" d="M150.51,233.13c.08.41.15.82.24,1.23.33,1.47.72,2.92,1.09,4.38.56,2.18,1.14,4.35,1.62,6.56a.13.13,0,0,0,.16.1.13.13,0,0,0,.11-.16c-.42-2.05-.88-4.09-1.4-6.11-.42-1.62-.83-3.24-1.31-4.84-.12-.4-.25-.8-.38-1.2a.07.07,0,0,0-.08,0S150.5,233.09,150.51,233.13Z" transform="translate(-37.8 -67.98)"/><path class="cls-8" d="M149.36,244a7.17,7.17,0,1,0,10-.67A7.12,7.12,0,0,0,149.36,244Z" transform="translate(-37.8 -67.98)"/><path class="cls-9" d="M320.74,132.1,131.45,150l5.22,262.57h15.68l153-7.3Z" transform="translate(-37.8 -67.98)"/><path class="cls-10" d="M162.4,167.13l-9.68-10L315,140.41l20.16,7.92L328.6,404.86l-176.25,7.67Z" transform="translate(-37.8 -67.98)"/><g class="cls-11"><path class="cls-12" d="M165.81,163.45s.47,0,1.37-.07c2-.15,6.3-.63,12.23-1.25,25-2.57,79.64-8.23,122.3-12.65,13.2-1.38,25.26-2.61,34.94-3.64,14.21-1.49,23.28-2.49,23.28-2.49s.06,0,.06-.08a.08.08,0,0,0-.07-.05s-9.08.89-23.31,2.33c-9.67,1-21.73,2.23-34.94,3.6-42.66,4.41-97.29,10.06-122.29,12.68-5.93.61-10.2,1-12.23,1.27-.89.13-1.35.22-1.35.22a.07.07,0,0,0-.06.07S165.78,163.46,165.81,163.45Z" transform="translate(-37.8 -67.98)"/><path class="cls-12" d="M161.28,161.15s.47,0,1.37-.07c2-.15,6.3-.63,12.23-1.24,25-2.57,79.64-8.24,122.29-12.66,13.21-1.37,25.27-2.61,34.94-3.63,14.22-1.5,23.29-2.5,23.29-2.5s.06,0,.05-.07a.06.06,0,0,0-.06-.06s-9.08.89-23.31,2.34c-9.68,1-21.73,2.22-34.94,3.6-42.66,4.4-97.3,10-122.3,12.67-5.92.61-10.19,1-12.22,1.28-.89.12-1.35.21-1.35.21s-.07,0-.06.07A.06.06,0,0,0,161.28,161.15Z" transform="translate(-37.8 -67.98)"/><path class="cls-12" d="M159.38,158.36s.47,0,1.37-.07c2.05-.15,6.3-.63,12.23-1.25,25-2.57,79.64-8.23,122.3-12.65,13.2-1.38,25.26-2.61,34.94-3.64,14.21-1.49,23.28-2.49,23.28-2.49s.06,0,.06-.08a.08.08,0,0,0-.07-.05s-9.08.88-23.31,2.33c-9.67,1-21.73,2.23-34.94,3.6C252.58,148.47,198,154.12,173,156.74c-5.93.61-10.2,1-12.23,1.27-.89.13-1.35.22-1.35.22a.07.07,0,0,0-.06.07S159.35,158.37,159.38,158.36Z" transform="translate(-37.8 -67.98)"/><path class="cls-13" d="M365.77,140.41l-30.66,7.93L170.36,166.51l25.52,267.68,161.68,14.36Z" transform="translate(-37.8 -67.98)"/><g class="cls-14"><path class="cls-15" d="M227.3,215.66c7.77-2.11,16.24-2.77,24.39-2.95,5.77-.13,25,2.18,29.88-.7,1.2-.72-1.82-3.9-2.47-4.31-5.45-3.35-11.76-1-16.13-3-.12-.05-.12-.94-.12-1,.09-5.48,6.07-14.26-3-17.1-5.75-1.82-11.14.79-14.5,4.72-.07.1-1.23,1.69-1.25,1.68-2.15-.58-3.83-2.26-6.06-2.77-9-2.07-11.84,3-11.57,9.5a12.43,12.43,0,0,1-2.21.48c-5,.91-8.75,2.15-7.27,7.46Z" transform="translate(-37.8 -67.98)"/><path class="cls-15" d="M276.78,263.67c9.92-2.69,20.71-3.52,31.11-3.76,7.37-.17,31.95,2.79,38.13-.9,1.53-.91-2.32-5-3.16-5.49-6.94-4.28-15-1.33-20.58-3.86-.14-.06-.15-1.19-.14-1.29.12-7,7.74-18.2-3.77-21.83-7.34-2.31-14.21,1-18.5,6-.09.12-1.57,2.15-1.59,2.15-2.75-.75-4.89-2.9-7.73-3.55-11.52-2.63-15.11,3.86-14.77,12.12a14.27,14.27,0,0,1-2.82.62c-6.42,1.17-11.16,2.74-9.27,9.52Z" transform="translate(-37.8 -67.98)"/><path class="cls-15" d="M223.21,320.08a66.66,66.66,0,0,1,16.82-.9c3.93.21,16.88,2.91,20.39,1,.87-.47-1-3-1.37-3.3-3.47-2.74-7.93-1.37-10.77-3.05a2.36,2.36,0,0,1,0-.75c.46-4,5.16-10.17-.78-12.73-3.78-1.64-7.63,0-10.21,2.72,0,.06-1,1.17-1,1.17-1.42-.54-2.45-1.87-3.92-2.36-6-2-8.29,1.61-8.57,6.39a8,8,0,0,1-1.54.23c-3.49.42-6.11,1.13-5.48,5.11Z" transform="translate(-37.8 -67.98)"/><path class="cls-16" d="M312.19,300.68c-30.67-3.49-66.21,13.46-83.37,42.66-21,35.68-15.71,75.53-15.71,75.53l50.61.29s-.61-63.87,39-64.2c54.31-.44,42.33,69,42.33,69l44.89-.54S413.33,312.15,312.19,300.68Z" transform="translate(-37.8 -67.98)"/><g class="cls-17"><path class="cls-4" d="M311.13,313.82c-27.35-3.24-59,12.53-74.32,39.7-18.69,33.19-14,70.26-14,70.26l48.52.91s-7.87-61.79,30-61.93c48.42-.17,39.14,65.77,39.14,65.77l40-.51S401.29,324.5,311.13,313.82Z" transform="translate(-37.8 -67.98)"/><path class="cls-6" d="M309.84,326.23c-23.3-2.76-50.29,10.68-63.33,33.83-15.92,28.28-11.93,59.86-11.93,59.86l41.34.78s-6.7-52.65,25.52-52.77c41.26-.15,33.36,56,33.36,56l34.1-.43S386.66,335.33,309.84,326.23Z" transform="translate(-37.8 -67.98)"/><path class="cls-15" d="M311.79,341.2c-19-2.33-41.09,9-51.74,28.64-13,24-9.75,50.7-9.75,50.7l33.78.66s-5.48-44.59,20.85-44.69c33.71-.12,27.25,47.46,27.25,47.46l27.86-.36S374.55,348.91,311.79,341.2Z" transform="translate(-37.8 -67.98)"/></g></g></g><path class="cls-10" d="M154.79,156.9,136.68,412.51,203.87,445l14.08.79.18-3.55,6.05.71,4.53-259.82Z" transform="translate(-37.8 -67.98)"/><path class="cls-12" d="M165.33,160.47c3.48,1.19,13.21,5.15,23.82,9.51,16,6.56,33.89,14.05,35.45,14.69-.06,3.91-1.56,104.7-2.54,178.33-.57,42.84-1,76.48-1,76.48a.06.06,0,0,0,.06.06.06.06,0,0,0,.06-.06s.57-33.64,1.21-76.48c1.12-75.08,2.52-178.44,2.52-178.44a.16.16,0,0,0-.11-.16s-23.7-9.94-41.52-17.11c-8.17-3.3-15.12-6-17.95-6.95a.07.07,0,0,0-.08,0A.09.09,0,0,0,165.33,160.47Z" transform="translate(-37.8 -67.98)"/><path class="cls-12" d="M159.05,158c1.51.74,3.61,1.8,6.15,3,1.86.89,4,1.87,6.21,2.93,18.39,8.7,47.45,22.35,49.55,23.34-.06,4.67-1.68,131-2.52,204.05-.34,30-.54,51-.54,51a0,0,0,0,0,0,.05,0,0,0,0,0,0-.05s.34-21,.75-51c1-74.48,2.63-204.18,2.63-204.18a.2.2,0,0,0-.12-.19s-38.17-18.06-55.9-26.27c-2.57-1.19-4.71-2.14-6.24-2.84a.06.06,0,0,0-.09,0A.08.08,0,0,0,159.05,158Z" transform="translate(-37.8 -67.98)"/><path class="cls-6" d="M131.45,150,136,412.51l76.58,38.69L218,189.59Z" transform="translate(-37.8 -67.98)"/><path class="cls-12" d="M208.87,207.19h0s0,0,0,0a.26.26,0,0,0,0-.19,4.94,4.94,0,0,0-.46-.93l-4.6-9.24a.16.16,0,0,0-.09-.09l-54.18-24.45a.28.28,0,0,0-.36.1l-7.78,10a.31.31,0,0,0-.07.2l.82,212.31a.31.31,0,0,0,0,.13l5.4,13.86a.39.39,0,0,0,.18.2l46.59,22.79a.31.31,0,0,0,.34-.06l10.95-10.66a.28.28,0,0,0,0-.38.26.26,0,0,0-.37,0l-10.85,10.49-46.2-22.77L143,394.8l-.93-212.13,7.54-9.75,54,24.09c.35.67,3.39,6.71,4.63,9.16a5.33,5.33,0,0,0,.46.92C208.79,207.2,208.85,207.19,208.87,207.19Z" transform="translate(-37.8 -67.98)"/><path class="cls-12" d="M208.86,207.19l-.07-.06s0,0-.08,0a1.38,1.38,0,0,0,0,.39c0,.63,0,1.94-.08,3.85-.13,6.68-.42,20.7-.73,38.48-.71,40.22-1.65,99.67-2.18,136.84-.3,20.49-.44,34.21-.44,34.21a.27.27,0,0,0,.26.27.26.26,0,0,0,.28-.26s.29-13.72.63-34.21c.63-37.17,1.53-96.62,2.08-136.84.24-17.78.39-31.8.47-38.49,0-1.91,0-3.22,0-3.85a1.33,1.33,0,0,0,0-.38c-.05-.09-.07,0-.07,0l-.09.06c.08-.1,0-.13,0-.13a.06.06,0,0,0-.06.06Z" transform="translate(-37.8 -67.98)"/><path class="cls-18" d="M69.32,373.42l1.43,4,3.87,1.47-3.87,1.47-1.43,4-1.43-4L64,378.86l3.87-1.47Z" transform="translate(-37.8 -67.98)"/><path class="cls-18" d="M126.17,109.5l3.25,9,8.77,3.34-8.77,3.33-3.25,9-3.24-9-8.78-3.33,8.78-3.34Z" transform="translate(-37.8 -67.98)"/><path class="cls-18" d="M124.22,289.79l2.19,6.08,5.91,2.24-5.91,2.25-2.19,6.07L122,300.36l-5.91-2.25,5.91-2.24Z" transform="translate(-37.8 -67.98)"/><path class="cls-18" d="M162.6,74.2l1.81,5,4.9,1.86L164.41,83l-1.81,5-1.81-5-4.9-1.86,4.9-1.86Z" transform="translate(-37.8 -67.98)"/><path class="cls-18" d="M412.27,239.7l2.19,6.08,5.91,2.24-5.91,2.25-2.19,6.07-2.19-6.07L404.17,248l5.91-2.24Z" transform="translate(-37.8 -67.98)"/><path class="cls-18" d="M81,223.64,82.25,227l3.27,1.25-3.27,1.24L81,232.84l-1.21-3.36-3.27-1.24L79.83,227Z" transform="translate(-37.8 -67.98)"/><path class="cls-18" d="M90,280.59,91.21,284l3.28,1.25-3.28,1.24L90,289.8l-1.21-3.36-3.27-1.24L88.79,284Z" transform="translate(-37.8 -67.98)"/><path class="cls-18" d="M42.28,322.6,43.49,326l3.27,1.25-3.27,1.24-1.21,3.36-1.21-3.36-3.27-1.24L41.07,326Z" transform="translate(-37.8 -67.98)"/><path class="cls-18" d="M190.19,111.7l1.21,3.36,3.28,1.24-3.28,1.24-1.21,3.36L189,117.54l-3.27-1.24,3.27-1.24Z" transform="translate(-37.8 -67.98)"/><path class="cls-18" d="M454.16,183.56l1.21,3.36,3.28,1.24-3.28,1.25-1.21,3.36L453,189.41l-3.27-1.25,3.27-1.24Z" transform="translate(-37.8 -67.98)"/><path class="cls-19" d="M290.23,247.9s6.7-1.81,10.81,1,13.1,17.52,22,33.45c5.33,9.53-3.08,11.71-6,8.17s-23-21.1-23-21.1-2.61-15.56-3.63-21.66" transform="translate(-37.8 -67.98)"/><path class="cls-19" d="M319.68,293.31c-16.32,0-28.7-1.73-37.61-2.79-3.51-.42-2.54-4.09.18-4.43,5.14-.67,28.05-10.42,36.42-6.22,1.66.83,5.41,4.83,6,8A4.82,4.82,0,0,1,319.68,293.31Z" transform="translate(-37.8 -67.98)"/><path class="cls-19" d="M229.79,268.37a7.83,7.83,0,0,0-.89-2.19c-.8-1.35-3.08-2.66-4.87-3.95-2.53-1.82-3.33-5.64-4.75-5.66-1.25,0-.6,3.17-.68,3.13a16,16,0,0,1-2.59-2.85c-1.32-.33-2.91,1.47-1.79,3.36-1.5-.35-1.59,2.51-.08,3.56-1.7-.53-2.34,2.35-.5,4-1.12-.46-1.46,2-.13,2.67,2.82,1.52,12.31,5.74,13.22,6.15,1.35.6,3.06-8.22,3.06-8.22" transform="translate(-37.8 -67.98)"/><path class="cls-12" d="M218.47,259.72l.31.62.36.63c.09.14.18.28.28.41.27.34.54.67.83,1s.89.9,1.34,1.35c0,0,0,0,0,0s0,0,0,0l-1.27-1.41c-.28-.33-.55-.65-.8-1-.09-.13-.18-.27-.27-.39s-.24-.44-.36-.64-.15-.29-.24-.43a.55.55,0,0,0-.12-.14.06.06,0,0,1-.05,0s0,0,0,0S218.46,259.7,218.47,259.72Z" transform="translate(-37.8 -67.98)"/><path class="cls-12" d="M214.55,260l1.2,1.39a7.4,7.4,0,0,0,.83.76c.44.36.89.7,1.35,1a0,0,0,0,0,0,0,0,0,0,0,0,0,0c-.45-.33-.9-.67-1.32-1a9.94,9.94,0,0,1-.81-.78c-.3-.29-.56-.64-.86-.95a3.59,3.59,0,0,0-.4-.38s0,0,0,0Z" transform="translate(-37.8 -67.98)"/><path class="cls-12" d="M213.66,263.55s.07.08.11.11c.34.31.7.6,1,.92.57.52,1.12,1.07,1.69,1.58.24.22.49.43.74.63h0s0,0,0,0c-.85-.72-1.62-1.55-2.45-2.33a11.4,11.4,0,0,0-1-.84l-.13-.06s0,0,0,0S213.65,263.54,213.66,263.55Z" transform="translate(-37.8 -67.98)"/><path class="cls-12" d="M213.36,267.66l1,.78a17.7,17.7,0,0,0,1.5,1.12,10.51,10.51,0,0,0,1.86,1,.09.09,0,0,0,.05,0,0,0,0,0,0,0-.06,10.06,10.06,0,0,1-1.8-1c-.52-.34-1-.71-1.52-1.08q-.49-.37-1-.72h0S213.35,267.66,213.36,267.66Z" transform="translate(-37.8 -67.98)"/><path class="cls-12" d="M213,269.76l.15-.87s0,0,0,0h0l-.16.89s0,0,0,0Z" transform="translate(-37.8 -67.98)"/><path class="cls-12" d="M213.27,269.94l.26-1.14s0,0,0,0,0,0,0,0l-.25,1.15s0,0,0,0S213.27,270,213.27,269.94Z" transform="translate(-37.8 -67.98)"/><path class="cls-12" d="M212.77,266.19c0-.25.1-.48.16-.71s.13-.47.2-.7c0,0,0,0,0,0h0c-.08.23-.14.47-.21.72s-.11.46-.16.71h.05Z" transform="translate(-37.8 -67.98)"/><path class="cls-12" d="M213.76,262.25c.05-.16.11-.3.17-.45s.2-.44.31-.65a.1.1,0,0,0,0,0s0,0,0,0c-.11.22-.22.43-.31.65s-.12.3-.17.45,0,0,0,0Z" transform="translate(-37.8 -67.98)"/><path class="cls-12" d="M215,258.8l.24-.63s0,0,0,0h0l-.24.64a0,0,0,0,0,0,0S215,258.82,215,258.8Z" transform="translate(-37.8 -67.98)"/><path class="cls-12" d="M219.47,256.52a.38.38,0,0,0-.35.22,1.4,1.4,0,0,0-.12.62,1.29,1.29,0,0,0,.21.67,1.31,1.31,0,0,0,.51.46.87.87,0,0,0,.76.08.77.77,0,0,0,.43-.61h0a.72.72,0,0,1-.44.56.83.83,0,0,1-.71-.07,1.41,1.41,0,0,1-.47-.47,1.17,1.17,0,0,1-.2-.62,1.44,1.44,0,0,1,.11-.57.36.36,0,0,1,.28-.24h0S219.48,256.52,219.47,256.52Z" transform="translate(-37.8 -67.98)"/><path class="cls-12" d="M220.33,259.35l.53-.18s0,0,0,0,0,0,0,0l-.52.17s0,0,0,0S220.32,259.35,220.33,259.35Z" transform="translate(-37.8 -67.98)"/><path class="cls-12" d="M220.46,259.72l.43-.11a0,0,0,0,0,0,0s0,0,0,0l-.42.13h0S220.45,259.73,220.46,259.72Z" transform="translate(-37.8 -67.98)"/><path class="cls-19" d="M285.07,247.25s-7.19-2-11.62.89-17.51,16.78-27.14,33c-8,13.38,5.74,13.71,9.8,9.44,3.22-3.39,13.91-12.81,18.53-19.12A58.45,58.45,0,0,0,285,247.15" transform="translate(-37.8 -67.98)"/><path class="cls-19" d="M255.51,282.7c-13.22-9.57-25.63-14.41-33.3-19-3-1.82-4.83,3.75-2.9,5.7,3.66,3.68,20.14,19.81,28.78,23.45,2.83,1.2,5-.05,6.45-.86C255.75,291.27,257.32,284,255.51,282.7Z" transform="translate(-37.8 -67.98)"/><path class="cls-19" d="M268.19,293.37s-2.27,11.48-3.16,16a78,78,0,0,0-.49,21.47c1.22,10.87,3.53,30.56,7.8,43.77,3.59,11.09,6.2,33.05,6.45,47.75,0,2.82-7.43,6.38-12.89,7.8,0,0,.15,2.29,10.52,1.5,2.43-.74,9.68.89,11.75-1.06,2.53-2.38-.39-5.61.14-7.83,5.65-23.35,12.69-38.3-1.67-52.07,0,0,6.32-60.95-4.32-73.08-4.78-5.45-14.13-4.29-14.13-4.29" transform="translate(-37.8 -67.98)"/><path class="cls-19" d="M294.32,290.45s-17.48,7.67-18,19.09c-.73,14.7,7,51.62,10.69,64.86,3.06,11.11,42.57,26.34,44,27,7,3,4.39,19.43,3,21.66,0,0,6.54-8.5,6.66-13.56.09-4.23,4.28-12.28,3.79-13.86-1.38-4.35-9.33.41-9.87-.66-8.49-16.83-17.33-21.19-33.18-23.76l2.83-42.81s5.84-10.45-.14-20.8C300.65,301.58,294.32,290.45,294.32,290.45Z" transform="translate(-37.8 -67.98)"/><path class="cls-19" d="M295.8,234.56s-2.57,11.16,1,15.31c2.93,3.43-15.56,5.39-17,2.13a29.24,29.24,0,0,0,3.49-5,44.89,44.89,0,0,0,1.44-7.49s.53-4.75,11.07-4.93" transform="translate(-37.8 -67.98)"/><path class="cls-19" d="M269.68,271.55c-.06,1.33-2.78,29-2.78,29,2.93-.9,14.33,20.12,14.33,20.12l12.43.43s-.1-3.93,0-8.55c.16-8.33,2-11.83,5-14.83l-2.58-6.16c7-18.35,10.33-30.09,3.74-43.15,0,0-4-.58-4.15-.22l-16.79-1.6s-6.25,11-7.33,12.3c-5.44,6.46-1.8,11.71-1.84,12.65" transform="translate(-37.8 -67.98)"/><path class="cls-19" d="M288,243.14c3.8-1.44,6.92-3.33,9.18-7.1,4.46-7.45,1.21-11.93-4.28-14.08-6.53-2.57-10.62.07-12.5,1.68s-4.07,6.33-4.73,10.69c-.45,3,1.81,7.32,3.66,8.42C281.33,244,285.4,244.11,288,243.14Z" transform="translate(-37.8 -67.98)"/><path class="cls-13" d="M278.77,412.12c-1.65,1.09.32,2.69-.59,3.76-1.17,1.35,1.12,2-.41,3.69-1,1,.41,3.15.41,3.15l-.41,5.6,10.24-5.6c.21,0,1.73-.11,1.94-1.16.14-.84-.61-1.86,0-2.7,1-1.35.59-1.59.38-2.67-.28-1.48.86-2.64.57-4.07Z" transform="translate(-37.8 -67.98)"/><path class="cls-12" d="M289.73,415.38s0,0-.08-.06h-.08a11.77,11.77,0,0,0-1.47-.05c-1.26,0-2.55.22-3.77.26a.07.07,0,0,0,0,0l0,0c1,0,2.16-.1,3.24-.14a17.75,17.75,0,0,1,1.93,0,.29.29,0,0,0,.13,0s.06,0,.1,0l0,0S289.75,415.38,289.73,415.38Z" transform="translate(-37.8 -67.98)"/><path class="cls-12" d="M278.81,418.81a16.28,16.28,0,0,0,2.85.39A36.46,36.46,0,0,0,286,419,.06.06,0,0,0,286,419s0-.05-.06-.05c-1.2.07-2.4.12-3.6.1-.47,0-.94,0-1.43,0a15.53,15.53,0,0,1-2.14-.22s0,0,0,0A0,0,0,0,0,278.81,418.81Z" transform="translate(-37.8 -67.98)"/><path class="cls-12" d="M280,416.13c.39,0,.76.1,1.12.13a6.54,6.54,0,0,0,.76,0s.06,0,0,0a0,0,0,0,0,0-.05l-1.86-.1a0,0,0,0,0,0,0A0,0,0,0,0,280,416.13Z" transform="translate(-37.8 -67.98)"/><path class="cls-12" d="M280.56,413.61l.82,0c.41,0,.79,0,1.2,0,0,0,.06,0,.06-.05a.07.07,0,0,0-.06-.06l-1.41,0-.61,0a0,0,0,0,0,0,0S280.56,413.62,280.56,413.61Z" transform="translate(-37.8 -67.98)"/><path class="cls-12" d="M286.71,420.52a7,7,0,0,1-.79.06h-.79c-.05,0-.07,0-.07.05s0,.06.07.06c.32,0,.65,0,.95,0a4.63,4.63,0,0,0,.65-.1,0,0,0,0,0,0,0S286.73,420.52,286.71,420.52Z" transform="translate(-37.8 -67.98)"/><path class="cls-12" d="M289.67,413.31s0,0-.06,0-.23.06-.33.1-.31.2-.47.31a.11.11,0,0,0,0,.08.07.07,0,0,0,.08,0,3.09,3.09,0,0,1,.74-.34s0,0,.06,0,0,0,0-.06,0,0,0,0Z" transform="translate(-37.8 -67.98)"/><path class="cls-12" d="M286,413.36l.1.1c.19.15.43.25.61.4a2.1,2.1,0,0,1,.27.2.09.09,0,0,0,.1,0,.09.09,0,0,0,0-.1,3,3,0,0,0-.47-.41,1.18,1.18,0,0,0-.51-.26l-.06,0s0,0,0,0Z" transform="translate(-37.8 -67.98)"/><path class="cls-12" d="M289.48,416.64l-.12,0a1.15,1.15,0,0,0-.41.13,3.59,3.59,0,0,0-.63.44s0,0,0,.06,0,0,.06,0c.17-.09.33-.15.51-.23l.49-.21s0,0,0,0,0,0,.06-.08,0,0,0,0A0,0,0,0,0,289.48,416.64Z" transform="translate(-37.8 -67.98)"/><path class="cls-12" d="M284.05,413.77l.57.3h0s0,0,0-.05a3,3,0,0,0-.39-.22l-.18-.07h0S284,413.76,284.05,413.77Z" transform="translate(-37.8 -67.98)"/><path class="cls-12" d="M284.45,416.69c-.06,0-.08,0-.12.05a5.19,5.19,0,0,0-.43.73s0,.08,0,.11a.09.09,0,0,0,.13,0,4.55,4.55,0,0,0,.44-.64.21.21,0,0,0,0-.11.2.2,0,0,0,0-.1s0,0,0,0Z" transform="translate(-37.8 -67.98)"/><path class="cls-12" d="M280.73,414.48l.1.1c.12.1.28.18.43.28a3.06,3.06,0,0,1,.32.3l.16.12a.07.07,0,0,0,.09,0,.06.06,0,0,0,0-.08,1.18,1.18,0,0,0-.11-.19,2.4,2.4,0,0,0-.24-.22,1.86,1.86,0,0,0-.63-.37h-.12A0,0,0,0,0,280.73,414.48Z" transform="translate(-37.8 -67.98)"/><path class="cls-12" d="M279.46,413.27a5.34,5.34,0,0,1,.55.42c.19.15.35.3.53.45,0,0,0,0,0,0a0,0,0,0,0,0-.05,5.12,5.12,0,0,0-.73-.66,2.71,2.71,0,0,0-.37-.21s0,0,0,0A0,0,0,0,0,279.46,413.27Z" transform="translate(-37.8 -67.98)"/><path class="cls-12" d="M286.16,417.39c0,.05,0,0,0,.05l.06.07a7.11,7.11,0,0,0,.68.55s.08,0,.1,0,0-.09,0-.11a7.22,7.22,0,0,0-.65-.6l-.08,0c-.05,0,0,0-.05,0s0,0,0,0A0,0,0,0,0,286.16,417.39Z" transform="translate(-37.8 -67.98)"/><path class="cls-12" d="M282.15,417.82s0-.05-.1-.06a1,1,0,0,0-.37.08,2.47,2.47,0,0,0-.61.34.08.08,0,0,0,0,.1s.08.05.1,0l.47-.17a2.16,2.16,0,0,0,.47-.15c.06,0,.06-.06.1-.1s0,0,0,0Z" transform="translate(-37.8 -67.98)"/><path class="cls-12" d="M279.83,414.72l-.12,0a1.41,1.41,0,0,0-.35.34,2.21,2.21,0,0,0-.36.49s0,.05,0,.07,0,0,.06,0l.22-.23a6.5,6.5,0,0,0,.53-.52s0-.08,0-.13,0,0,0,0S279.85,414.71,279.83,414.72Z" transform="translate(-37.8 -67.98)"/><path class="cls-12" d="M283.76,414.88l-.3.16a4.15,4.15,0,0,0-.43.3s0,0,0,.06,0,0,.06,0l.73-.41a.06.06,0,0,0,0-.08S283.8,414.87,283.76,414.88Z" transform="translate(-37.8 -67.98)"/><path class="cls-12" d="M282,420.8h-.08a.18.18,0,0,0-.08.09,2.06,2.06,0,0,0-.27.33,1.46,1.46,0,0,1-.16.21s0,.05,0,.07a.06.06,0,0,0,.08,0,1.54,1.54,0,0,0,.43-.34.78.78,0,0,0,.16-.2s0,0,0-.05,0,0,0-.07a0,0,0,0,0,0-.06A0,0,0,0,0,282,420.8Z" transform="translate(-37.8 -67.98)"/><path class="cls-12" d="M279.06,420.09s0,0,0,.07,0,0,0,0a3.17,3.17,0,0,0,.3.34c.1.11.21.21.31.33a.05.05,0,0,0,.08,0,0,0,0,0,0,0-.08,3.14,3.14,0,0,0-.45-.57.46.46,0,0,0-.16-.18h-.08s0,0,0,0A0,0,0,0,0,279.06,420.09Z" transform="translate(-37.8 -67.98)"/><path class="cls-12" d="M281.72,422.43a2.44,2.44,0,0,0-.24.1,2.4,2.4,0,0,0-.47.43.08.08,0,0,0,0,.09s.08,0,.1,0a3.82,3.82,0,0,0,.51-.35.91.91,0,0,0,.17-.23,0,0,0,0,0,0,0Z" transform="translate(-37.8 -67.98)"/><path class="cls-12" d="M283.94,420.46s0,.07.05.1a6.4,6.4,0,0,0,.71.55.05.05,0,0,0,.08,0,.06.06,0,0,0,0-.08,3.13,3.13,0,0,0-.69-.58.27.27,0,0,0-.13,0h0A0,0,0,0,0,283.94,420.46Z" transform="translate(-37.8 -67.98)"/><path class="cls-12" d="M287.59,419.2v0c0,.07.14.1.22.15s.43.29.64.45a.94.94,0,0,0,.12.09l.14.08a.08.08,0,1,0,.12-.1c0-.06-.06-.11-.1-.16s-.14-.11-.2-.16c-.25-.17-.51-.31-.76-.47,0,0,0,0-.06,0h0s-.06,0-.1,0S287.57,419.17,287.59,419.2Z" transform="translate(-37.8 -67.98)"/><path class="cls-12" d="M288.2,421l-.08,0a2,2,0,0,0-.47.23.1.1,0,0,0,0,.08.07.07,0,0,0,.08,0c.16-.07.37-.09.49-.21l0-.06s0,0,0,0S288.22,420.94,288.2,421Z" transform="translate(-37.8 -67.98)"/><path class="cls-12" d="M278.87,417.1a.71.71,0,0,0,.13.22,2.49,2.49,0,0,0,.44.32.11.11,0,0,0,.15,0,.11.11,0,0,0,0-.16,3.28,3.28,0,0,0-.43-.33,1,1,0,0,0-.25-.06h0A0,0,0,0,0,278.87,417.1Z" transform="translate(-37.8 -67.98)"/><path class="cls-13" d="M323,397.4c.33,2,2.59.79,3.2,2.06.76,1.61,2.31-.2,3.21,1.87.56,1.31,3.05.9,3.05.9l4.95,2.64-1-11.63c.12-.17.6-1.63-.29-2.25-.7-.46-1.94-.19-2.47-1.09-.83-1.44-1.21-1.18-2.28-1.43-1.47-.34-2.07-1.85-3.49-2.17Z" transform="translate(-37.8 -67.98)"/><path class="cls-12" d="M330.36,388.69l-.08.06s0,0,0,.07a11.52,11.52,0,0,0-.63,1.32c-.48,1.17-.83,2.42-1.29,3.55l0,0h0c.42-1,.79-2,1.18-3,.24-.61.5-1.2.79-1.77a.33.33,0,0,0,.06-.1.41.41,0,0,0,0-.11s0,0,0,0Z" transform="translate(-37.8 -67.98)"/><path class="cls-12" d="M329.08,400.07a16.89,16.89,0,0,0,1.52-2.45,37.29,37.29,0,0,0,1.59-4,.07.07,0,0,0,0-.08s-.07,0-.08,0c-.42,1.13-.86,2.25-1.36,3.34-.19.43-.4.85-.62,1.29A18.13,18.13,0,0,1,329,400s0,0,0,0S329.07,400.08,329.08,400.07Z" transform="translate(-37.8 -67.98)"/><path class="cls-12" d="M327.12,397.88c.19-.34.4-.65.57-1a4.17,4.17,0,0,0,.32-.68s0-.07,0-.06-.06,0-.06,0l-.85,1.65s0,0,0,.05S327.12,397.88,327.12,397.88Z" transform="translate(-37.8 -67.98)"/><path class="cls-12" d="M325,396.36c.13-.25.24-.49.35-.73s.31-.74.47-1.11c0,0,0-.07,0-.08s-.06,0-.07,0c-.18.44-.38.86-.55,1.3-.08.19-.14.38-.21.57a0,0,0,0,0,0,0S325.05,396.36,325,396.36Z" transform="translate(-37.8 -67.98)"/><path class="cls-12" d="M333.85,393.53a6.06,6.06,0,0,1-.27.75c-.11.24-.21.49-.33.73a.07.07,0,0,0,0,.08.06.06,0,0,0,.08,0c.13-.29.27-.59.37-.88a4.29,4.29,0,0,0,.17-.64,0,0,0,0,0,0,0A0,0,0,0,0,333.85,393.53Z" transform="translate(-37.8 -67.98)"/><path class="cls-12" d="M328.45,387.91s0,0-.07,0,0,.23,0,.34a3.83,3.83,0,0,0,.09.56.15.15,0,0,0,.06,0s.06,0,.05-.07a3.66,3.66,0,0,1,0-.81s0,0,0-.06,0,0-.05,0a.05.05,0,0,0,0,0Z" transform="translate(-37.8 -67.98)"/><path class="cls-12" d="M327,391.3a.5.5,0,0,0,.13-.05c.22-.1.41-.29.62-.39a2.19,2.19,0,0,1,.29-.17s0,0,0-.09a.1.1,0,0,0-.09,0,3.3,3.3,0,0,0-.57.26,1.31,1.31,0,0,0-.44.36.15.15,0,0,0,0,.07s0,0,0,0Z" transform="translate(-37.8 -67.98)"/><path class="cls-12" d="M331.42,389.43c0,.05-.07.06-.08.1a.81.81,0,0,0,0,.42,2.83,2.83,0,0,0,.14.75,0,0,0,0,0,.06,0,.05.05,0,0,0,0-.05,3.47,3.47,0,0,1,0-.56,4.68,4.68,0,0,1,0-.53s0,0,0,0a.19.19,0,0,0,0-.09s0,0,0,0S331.42,389.43,331.42,389.43Z" transform="translate(-37.8 -67.98)"/><path class="cls-12" d="M326.6,393.24l.5-.4a0,0,0,0,0,0,0s0,0,0,0a3.09,3.09,0,0,0-.37.26l-.13.14a.07.07,0,0,0,0,.05S326.58,393.26,326.6,393.24Z" transform="translate(-37.8 -67.98)"/><path class="cls-12" d="M329.43,394.05a.3.3,0,0,0,0,.13,4.64,4.64,0,0,0,.5.69c0,.05.07.05.1,0a.08.08,0,0,0,0-.12,4.56,4.56,0,0,0-.4-.67.6.6,0,0,0-.08-.08l-.1,0h-.05A0,0,0,0,0,329.43,394.05Z" transform="translate(-37.8 -67.98)"/><path class="cls-12" d="M325.9,396.56l.13-.05c.15-.07.28-.19.44-.27a2.35,2.35,0,0,1,.4-.18l.17-.1s0,0,0-.07,0,0-.08,0l-.21,0-.3.13a2.1,2.1,0,0,0-.6.43.79.79,0,0,1,0,.09s0,0,0,0S325.88,396.58,325.9,396.56Z" transform="translate(-37.8 -67.98)"/><path class="cls-12" d="M324.28,397.23a5.92,5.92,0,0,1,.61-.33l.63-.3s0,0,0,0,0,0,0,0a6,6,0,0,0-.9.4,3,3,0,0,0-.34.25s0,0,0,0Z" transform="translate(-37.8 -67.98)"/><path class="cls-12" d="M330.76,392.77s0,0,0,0l.08,0a7.09,7.09,0,0,0,.78-.39s.06-.07,0-.1a.06.06,0,0,0-.1,0,5.35,5.35,0,0,0-.81.35l-.06.07s0,0,0,0,0,0,0,0S330.74,392.78,330.76,392.77Z" transform="translate(-37.8 -67.98)"/><path class="cls-12" d="M329.53,396.61s-.06,0-.09.07a.87.87,0,0,0-.08.37,2.05,2.05,0,0,0,.07.69c0,.05,0,.09.07.08s.07-.05.06-.08c0-.18,0-.35,0-.5a1.63,1.63,0,0,0,.05-.49c0-.07,0-.08-.05-.14l0,0A.05.05,0,0,0,329.53,396.61Z" transform="translate(-37.8 -67.98)"/><path class="cls-12" d="M325.76,397.48s0,.08,0,.13a1.21,1.21,0,0,0,.16.45,2.5,2.5,0,0,0,.3.53,0,0,0,0,0,.07,0s0,0,0-.06a1.88,1.88,0,0,1-.12-.3,5.8,5.8,0,0,0-.27-.69.9.9,0,0,0-.1-.09s0,0,0,0S325.76,397.46,325.76,397.48Z" transform="translate(-37.8 -67.98)"/><path class="cls-12" d="M327.5,394c0,.11,0,.23,0,.35s.06.33.1.51c0,0,0,0,.05,0s0,0,0-.05l-.08-.84a.08.08,0,0,0-.07-.05S327.5,393.91,327.5,394Z" transform="translate(-37.8 -67.98)"/><path class="cls-12" d="M332.17,398s0,0,0,.08a.22.22,0,0,0,.05.11c.05.13.13.25.19.37a.92.92,0,0,1,.13.24s0,0,.06,0a0,0,0,0,0,0-.06,1.34,1.34,0,0,0-.14-.53.7.7,0,0,0-.11-.23s0,0-.05,0,0,0-.07,0a0,0,0,0,0-.05,0S332.16,398,332.17,398Z" transform="translate(-37.8 -67.98)"/><path class="cls-12" d="M330.36,400.36s0,0,.05.05,0,0,.07,0a2.39,2.39,0,0,0,.43-.14l.42-.15s.06,0,.05-.07a.05.05,0,0,0-.07,0,3.52,3.52,0,0,0-.71.18.37.37,0,0,0-.22.08s0,0,0,.07,0,0,0,0S330.34,400.38,330.36,400.36Z" transform="translate(-37.8 -67.98)"/><path class="cls-12" d="M333.58,398.87a2.26,2.26,0,0,0,0,.26,2.49,2.49,0,0,0,.2.6s0,.07.08.06.06-.06,0-.09a4.09,4.09,0,0,0-.1-.61.67.67,0,0,0-.16-.24s0,0,0,0S333.58,398.85,333.58,398.87Z" transform="translate(-37.8 -67.98)"/><path class="cls-12" d="M332.67,396h.11a6,6,0,0,0,.79-.43.05.05,0,0,0,0-.07.07.07,0,0,0-.08,0,3.06,3.06,0,0,0-.81.4.61.61,0,0,0-.07.1s0,0,0,0S332.66,396.06,332.67,396Z" transform="translate(-37.8 -67.98)"/><path class="cls-12" d="M333,392.19l0,0c.08,0,.15-.09.23-.14l.66-.4.14-.07a.57.57,0,0,1,.13-.1.1.1,0,0,0,.05-.11.09.09,0,0,0-.09,0,1.08,1.08,0,0,0-.19,0,1.67,1.67,0,0,0-.23.12c-.26.15-.49.34-.73.5l-.07,0s0,0,0,0,0,.05,0,.09S333,392.2,333,392.19Z" transform="translate(-37.8 -67.98)"/><path class="cls-12" d="M334.84,392.35s0,0,0,.06a2.31,2.31,0,0,0,0,.52.09.09,0,0,0,.06.07s.06,0,.06-.06a1.9,1.9,0,0,0,0-.53s0,0-.05-.06,0,0,0,0S334.84,392.32,334.84,392.35Z" transform="translate(-37.8 -67.98)"/><path class="cls-12" d="M327.54,399.32a1.15,1.15,0,0,0,.26,0,1.77,1.77,0,0,0,.47-.28.09.09,0,0,0,0-.14.1.1,0,0,0-.15,0,2.73,2.73,0,0,0-.48.25,1.3,1.3,0,0,0-.15.2s0,0,0,0Z" transform="translate(-37.8 -67.98)"/><path class="cls-6" d="M290.2,421.15s2,7.91,1.91,11.32c-.06,3-37.29,2-37.29,2a8.14,8.14,0,0,1-.15-2.45c.23-.41,16.2-3.92,19.68-6.05s2.36-3.69,2.46-4.81c0,0,2.36-.3,2.71,1.45l-.49,3.55,3.29-2.78Z" transform="translate(-37.8 -67.98)"/><g class="cls-20"><path class="cls-18" d="M252.9,432.84c.39-.44-.08-.33.45-.55.09,0,.19,0,.28,0,.49,0,1,0,1.48,0,1.23,0,2.47,0,3.67.06,1.75.07,3.51,0,5.27,0,1.18,0,2.35,0,3.52,0q3-.06,5.89-.25c5.08-.29,10.38-.12,15.6-.39,1.22-.06,2.44-.17,3.65-.25l2.44-.15c.81-.06,1.61-.18,2.43-.22.58,0,1.1,0,1.68,0a.56.56,0,1,1,.3,1.08,19.44,19.44,0,0,1-2.21,1.05,26.56,26.56,0,0,1-5.47,1.2c-6,.82-12.29.4-18.22.81-3,.19-6,.35-9.06.25-2-.07-4-.27-6-.52a34.84,34.84,0,0,1-4.75-.78c-.29-.09-.65-.08-.84-.32-.36-.43-.07-.2-.17-.75a.17.17,0,0,1-.1-.21A.16.16,0,0,1,252.9,432.84Z" transform="translate(-37.8 -67.98)"/><path class="cls-18" d="M267.31,432.29a13.17,13.17,0,0,1-1.45.47,19.92,19.92,0,0,1-7,.63,15.47,15.47,0,0,1-4.15-.68c-.12,0-.28,0-.34-.15-.32-.49-.2-.12-.1-.13s.09-.09.1-.34a.16.16,0,0,1-.13-.19.16.16,0,0,1,.19-.13c.28-.62-.27-.21,0-.36a1.52,1.52,0,0,0,.2-.11.3.3,0,0,1,.23,0,1.31,1.31,0,0,1,.1-.68l-1.12,0a1.33,1.33,0,0,1-1.34-.91c-.08-.17-.39-1.86,1.18-2.11.08,0,.38,0,.5-.05l1.13,0,3-.22,6.13-1.08c.38-.43.75-1,1.16-1.4a4.33,4.33,0,0,1,.88-.74,2.28,2.28,0,0,1,.89-.32,7.73,7.73,0,0,1,1.52.05l2.86-.25h.09l.72-.06a3.47,3.47,0,0,1,1.93.2,2.28,2.28,0,0,1,.85,1,3.16,3.16,0,0,1-.2,2.8,7.55,7.55,0,0,1-2.2,2.23,15.45,15.45,0,0,1-5.08,2.43Zm-9.89.44-.25,0c0,.21.19.14.37.05Zm9.82-7.07a.85.85,0,0,1,.19-.14l1.36.1h.68l-.19.21-.3.31-.23.23a3.72,3.72,0,0,0-.77-.29A1.32,1.32,0,0,0,267.24,425.66Zm3.06-1c0-.05.1-.11.13-.15Z" transform="translate(-37.8 -67.98)"/><path class="cls-6" d="M275,429.26a1.74,1.74,0,0,1-.46-.13,1.24,1.24,0,0,1-.28-.28,15.74,15.74,0,0,1-1.9-2.56,5.55,5.55,0,0,1-.48-1,5.26,5.26,0,0,1-.24-1.66.23.23,0,0,1,.45-.08,9.25,9.25,0,0,0,.8,1.48c.66,1.13,1.52,2.23,2.22,3.3a.8.8,0,0,1,.15.29,1.19,1.19,0,0,1,0,.42.16.16,0,0,1-.26.2Z" transform="translate(-37.8 -67.98)"/><path class="cls-6" d="M273.74,430.48a1.64,1.64,0,0,1-.32-.05,5.31,5.31,0,0,1-2-1.72,11.79,11.79,0,0,1-2.05-3.88.4.4,0,0,1,.24-.52.41.41,0,0,1,.53.24,14.84,14.84,0,0,0,1.27,2.43,15.42,15.42,0,0,0,1.74,2.26c.26.27.61.46.78.79.05.08,0,.09,0,.18a.17.17,0,0,1,0,.23A.17.17,0,0,1,273.74,430.48Z" transform="translate(-37.8 -67.98)"/><path class="cls-5" d="M293.14,430.63a10.51,10.51,0,0,1-2.22.58,34.3,34.3,0,0,1-3.47.29l-7,.29c-5.28.24-10.58.44-15.87.76-3.53.22-7.05.49-10.56.83,0,0,0,0,0,0l0,0c3.51-.29,7-.49,10.57-.68,5.29-.28,10.59-.5,15.87-.74l7-.32a29.68,29.68,0,0,0,3.49-.29,10.19,10.19,0,0,0,2.26-.61.09.09,0,0,0,.05-.11A.09.09,0,0,0,293.14,430.63Z" transform="translate(-37.8 -67.98)"/><path class="cls-5" d="M275.53,424.87a4.62,4.62,0,0,1-1.69,3,12,12,0,0,1-3.1,1.69,20.71,20.71,0,0,1-3.46,1,42.74,42.74,0,0,1-5.39.57c-1.42.09-2.81.17-4.21.17a22,22,0,0,1-2.8-.15.06.06,0,0,0,0,.11,19.09,19.09,0,0,0,2.81.27c1.4,0,2.8-.07,4.22-.15a41.21,41.21,0,0,0,5.42-.61,19.71,19.71,0,0,0,3.49-1,9.68,9.68,0,0,0,3.72-2.2,4.72,4.72,0,0,0,1.18-2.62.1.1,0,0,0-.08-.11A.09.09,0,0,0,275.53,424.87Z" transform="translate(-37.8 -67.98)"/><path class="cls-5" d="M291.12,423.74a23.94,23.94,0,0,1-3.75,1c-1.93.37-3.94.6-5.78.78a.05.05,0,0,0,0,.06.06.06,0,0,0,.06.06,57.68,57.68,0,0,0,5.81-.69,22.88,22.88,0,0,0,3.77-1,.09.09,0,0,0,.06-.12A.1.1,0,0,0,291.12,423.74Z" transform="translate(-37.8 -67.98)"/><path class="cls-5" d="M289.42,425.11a13.37,13.37,0,0,1-1.4.29c-1.1.19-2.22.31-3.32.43a.09.09,0,0,0-.08.1.08.08,0,0,0,.1.08c.95-.07,1.92-.1,2.87-.25a10,10,0,0,0,1.88-.48.09.09,0,0,0-.05-.17Z" transform="translate(-37.8 -67.98)"/><path class="cls-5" d="M276.05,428.22c.05,0,.09,0,.12-.08s0-.19,0-.29a.08.08,0,0,0,0-.12.1.1,0,0,0-.12,0c-.06.08-.16.14-.18.24s0,.08,0,.14a.09.09,0,1,0,.17.07Z" transform="translate(-37.8 -67.98)"/><path class="cls-5" d="M273.31,429.88c.06,0,0,.06.09.05s.1-.09.15-.14a.14.14,0,1,0-.16-.24c-.06,0-.13,0-.17.06s0,0,0,.1a.09.09,0,0,0,0,.13A.1.1,0,0,0,273.31,429.88Z" transform="translate(-37.8 -67.98)"/><path class="cls-5" d="M279.87,423a8.89,8.89,0,0,1-2.7,5.52,9.77,9.77,0,0,1-5.61,2.6.06.06,0,0,0,0,.12,10,10,0,0,0,5.67-2.64,9.08,9.08,0,0,0,2.8-5.58.08.08,0,0,0-.08-.1A.09.09,0,0,0,279.87,423Z" transform="translate(-37.8 -67.98)"/></g><path class="cls-6" d="M335.82,390.6s8,1.39,11.12,2.83c2.69,1.26-13.26,34.91-13.26,34.91a8.06,8.06,0,0,1-2.3-.85c-.28-.38,3-16.4,2.43-20.44s-2.42-3.66-3.41-4.2c0,0,.69-2.28,2.42-1.89l3.05,1.88-1.21-4.14Z" transform="translate(-37.8 -67.98)"/><g class="cls-21"><path class="cls-18" d="M331.42,429.44c-.24-.53-.33-.05-.32-.64,0-.09.08-.16.13-.24.23-.44.4-.89.61-1.35.52-1.11,1-2.25,1.54-3.33.77-1.57,1.45-3.19,2.15-4.81.47-1.08,1-2.15,1.41-3.23q1.14-2.73,2.15-5.48c1.79-4.77,4.08-9.55,6-14.43.43-1.14.82-2.3,1.24-3.44.28-.77.58-1.52.85-2.29s.49-1.55.78-2.31c.21-.54.47-1,.69-1.54a.56.56,0,1,1,1.11.17,19.89,19.89,0,0,1,.07,2.44,26.76,26.76,0,0,1-1.12,5.49c-1.69,5.84-4.61,11.4-6.63,17-1,2.81-2.12,5.66-3.43,8.38-.88,1.83-1.89,3.59-2.92,5.32a35.33,35.33,0,0,1-2.64,4c-.2.23-.33.56-.63.64-.54.15-.21,0-.76-.15a.16.16,0,0,1-.22,0A.16.16,0,0,1,331.42,429.44Z" transform="translate(-37.8 -67.98)"/><path class="cls-18" d="M336.74,416a10,10,0,0,1-.15,1.52,23,23,0,0,1-.61,2.75,22.44,22.44,0,0,1-1.64,3.89,15.46,15.46,0,0,1-2.29,3.52c-.09.1-.16.24-.28.26-.59.09-.2.13-.16,0s0-.12-.28-.22a.16.16,0,0,1-.22,0,.16.16,0,0,1,0-.23c-.46-.51-.3.17-.32-.15,0-.05,0-.12,0-.23a.32.32,0,0,1,.08-.22,1.45,1.45,0,0,1-.59-.36l-.47,1a1.34,1.34,0,0,1-1.37.86c-.19,0-1.86-.4-1.46-1.93,0-.09.12-.37.16-.48l.43-1.05,1-2.87,1.48-6.05c-.23-.51-.57-1.07-.8-1.62a3.91,3.91,0,0,1-.33-1.11,2.24,2.24,0,0,1,.07-.93,7.61,7.61,0,0,1,.66-1.38l.93-2.72h0l0-.07.23-.68a3.47,3.47,0,0,1,1-1.69,2.29,2.29,0,0,1,1.28-.36,3.11,3.11,0,0,1,2.48,1.32,7.65,7.65,0,0,1,1.15,2.91,15.27,15.27,0,0,1,.17,5.63C336.82,415.63,336.78,415.84,336.74,416Zm-3.59,9.23-.13.21c.19.08.21-.12.19-.32Zm-2.5-11.85a.85.85,0,0,1,0-.22l.64-1.21.27-.62.12.26c.05.13.11.26.17.39l.11.31a3,3,0,0,0-.58.59A1.35,1.35,0,0,0,330.65,413.42Zm.36-3.19c-.05,0-.06-.14-.08-.18Z" transform="translate(-37.8 -67.98)"/><path class="cls-6" d="M337.07,407.82c-.13.15-.14.25-.31.37a1.13,1.13,0,0,1-.36.14,16.74,16.74,0,0,1-3.11.71,5.08,5.08,0,0,1-1.1,0,4.89,4.89,0,0,1-1.6-.45.22.22,0,0,1-.17-.27.22.22,0,0,1,.28-.17,9.43,9.43,0,0,0,1.66-.13c1.31-.15,2.67-.49,3.92-.7a1.22,1.22,0,0,1,.33,0c.18,0,.22.1.38.17a.17.17,0,0,1,.2.12A.16.16,0,0,1,337.07,407.82Z" transform="translate(-37.8 -67.98)"/><path class="cls-6" d="M337.69,409.43a1.61,1.61,0,0,1-.17.28,5.57,5.57,0,0,1-2.39,1.16,12.06,12.06,0,0,1-4.38.3.4.4,0,0,1-.38-.43.4.4,0,0,1,.43-.38,16.06,16.06,0,0,0,2.74-.19,14.37,14.37,0,0,0,2.77-.68,4.1,4.1,0,0,1,1-.39c.09,0,.09,0,.17,0a.17.17,0,0,1,.23.05A.18.18,0,0,1,337.69,409.43Z" transform="translate(-37.8 -67.98)"/><path class="cls-5" d="M345.67,391.75a9.85,9.85,0,0,1-.36,2.27,32.54,32.54,0,0,1-1.14,3.28l-2.58,6.56c-1.91,4.93-3.88,9.86-5.72,14.82-1.24,3.32-2.4,6.65-3.51,10,0,0,0,0,0,0l0,0c1.16-3.33,2.4-6.63,3.66-9.93,1.88-5,3.81-9.89,5.74-14.82l2.56-6.57a34.64,34.64,0,0,0,1.14-3.3,10.87,10.87,0,0,0,.36-2.32.09.09,0,0,0-.09-.09A.11.11,0,0,0,345.67,391.75Z" transform="translate(-37.8 -67.98)"/><path class="cls-5" d="M333.29,405.52a4.7,4.7,0,0,1,2,2.75,11.73,11.73,0,0,1,.29,3.52,18.63,18.63,0,0,1-.5,3.56,41.12,41.12,0,0,1-1.65,5.16c-.49,1.34-1,2.64-1.55,3.92a22.58,22.58,0,0,1-1.27,2.5.06.06,0,0,0,0,.08.06.06,0,0,0,.07,0,20.05,20.05,0,0,0,1.39-2.46c.6-1.27,1.07-2.6,1.57-3.93a42.13,42.13,0,0,0,1.64-5.2,19.16,19.16,0,0,0,.48-3.6,9.59,9.59,0,0,0-.5-4.29,4.78,4.78,0,0,0-1.93-2.14.08.08,0,0,0-.12,0A.08.08,0,0,0,333.29,405.52Z" transform="translate(-37.8 -67.98)"/><path class="cls-5" d="M338.56,390.81a23.06,23.06,0,0,1-.61,3.83c-.44,1.92-1,3.84-1.63,5.6a.06.06,0,0,0,0,.07.07.07,0,0,0,.08,0,58.31,58.31,0,0,0,1.72-5.6,23.16,23.16,0,0,0,.59-3.86.1.1,0,1,0-.19,0Z" transform="translate(-37.8 -67.98)"/><path class="cls-5" d="M339.12,392.92a13.19,13.19,0,0,1-.29,1.39c-.28,1.09-.62,2.16-.95,3.22a.09.09,0,0,0,.05.11.09.09,0,0,0,.12-.06c.32-.89.68-1.8.93-2.73a11.4,11.4,0,0,0,.33-1.91.09.09,0,0,0-.09-.1A.09.09,0,0,0,339.12,392.92Z" transform="translate(-37.8 -67.98)"/><path class="cls-5" d="M336.56,406.41c0-.06,0-.1,0-.15s-.16-.1-.24-.16a.11.11,0,0,0-.13,0,.1.1,0,0,0,0,.13c.05.09.06.2.14.26s.09,0,.14,0a.09.09,0,0,0,.13,0A.08.08,0,0,0,336.56,406.41Z" transform="translate(-37.8 -67.98)"/><path class="cls-5" d="M337,409.58c.07,0,.06,0,.09-.06s-.05-.13-.07-.2a.15.15,0,0,0-.17-.11.13.13,0,0,0-.11.16c0,.06,0,.13,0,.18s0,0,.09,0a.1.1,0,0,0,.19,0Z" transform="translate(-37.8 -67.98)"/><path class="cls-5" d="M333.3,400.78a8.87,8.87,0,0,1,3.95,4.71,9.71,9.71,0,0,1,.11,6.17.07.07,0,0,0,0,.08s.07,0,.07,0a10,10,0,0,0-.11-6.25,9.15,9.15,0,0,0-4-4.83.1.1,0,0,0-.13,0A.09.09,0,0,0,333.3,400.78Z" transform="translate(-37.8 -67.98)"/></g><path class="cls-6" d="M266.93,297.31l30.54-2.64s12.17,15.27,11.37,27.39-1.44,40.54,3.36,43.83c10.26,7,29.05,16.83,16.52,29.8l-2.45,5.57s-4.48,6.63-11.58,3.61c-4.65-2-15.93-14.57-15.93-14.57a86.42,86.42,0,0,1-.41,14.07c-.92,5.93-7.13,8.7-7.13,8.7l-12.22.19s-13.28-1.48-13.3-11.23-2.32-43-3.3-62C261.11,315,266.93,297.31,266.93,297.31Z" transform="translate(-37.8 -67.98)"/><path class="cls-5" d="M299.11,390.92c-.05-.85-.1-1.69-.22-2.52-.43-3.33-1.25-6.6-1.68-9.92-.13-1-.24-2.07-.29-3.12-.22-3.87-.46-12.87-.56-20.85-.07-6.19-.05-11.77.2-13.86.76-6.38,5.37-13.06,6.62-20.87a22.66,22.66,0,0,0-.41-9.43.11.11,0,0,0-.14-.09.13.13,0,0,0-.09.14,23,23,0,0,1,0,9.27c-1.45,7.8-6,14.48-6.81,20.88-.27,2.1-.3,7.73-.19,14,.14,8,.5,17,.75,20.88a43.58,43.58,0,0,0,.58,4.71c.43,2.54.94,5.06,1.44,7.58.22,1.08.46,2.15.64,3.24a.07.07,0,0,0,.07.06A.06.06,0,0,0,299.11,390.92Z" transform="translate(-37.8 -67.98)"/><path class="cls-5" d="M310.86,364.36a3.48,3.48,0,0,0-.63.18,16.77,16.77,0,0,0-4.54,3.44,18.6,18.6,0,0,0-2.88,3.39,11.83,11.83,0,0,0-.87,1.7.1.1,0,0,0,0,.13.1.1,0,0,0,.13,0c.35-.53.72-1,1.1-1.52a26.07,26.07,0,0,1,2.85-3.28c1.36-1.28,3-2.23,4.43-3.41a5,5,0,0,0,.45-.47.08.08,0,0,0,0-.1A.07.07,0,0,0,310.86,364.36Z" transform="translate(-37.8 -67.98)"/><path class="cls-5" d="M310.89,364.35c-.13-.08-.16-.16-.32-.2a1.27,1.27,0,0,0-.2,0,19.71,19.71,0,0,0-4.49.95,17.64,17.64,0,0,0-4.57,2.21.16.16,0,0,0,0,.2.14.14,0,0,0,.19,0,17.66,17.66,0,0,1,3.62-1.63,25.93,25.93,0,0,1,5.24-1.16,1.27,1.27,0,0,0,.29,0c.15-.07.18-.15.29-.25s.06,0,.06-.07A.07.07,0,0,0,310.89,364.35Z" transform="translate(-37.8 -67.98)"/><path class="cls-5" d="M276.27,373.46c.2,0,.38,0,.58,0,1.69-.18,3.35-.52,5-.65,2.83-.2,5.68-.21,8.51-.22a.14.14,0,0,0,.14-.14.14.14,0,0,0-.14-.14c-2.84,0-5.7-.09-8.54.11a22.3,22.3,0,0,0-5.09.7,3.6,3.6,0,0,0-.54.22.07.07,0,0,0,0,.08A.05.05,0,0,0,276.27,373.46Z" transform="translate(-37.8 -67.98)"/><path class="cls-5" d="M280.13,368.9c.42,0,.83.09,1.26.1,1.66.06,3.33,0,5,.06a.16.16,0,0,0,0-.31c-1.25-.08-2.51-.1-3.77-.1-.5,0-1,0-1.5,0-.33,0-.67.07-1,.1a.07.07,0,0,0-.06.07A.06.06,0,0,0,280.13,368.9Z" transform="translate(-37.8 -67.98)"/><path class="cls-5" d="M269.49,298.71A59.49,59.49,0,0,0,266,309.64a82.94,82.94,0,0,0-1.62,17.12c0,14.32,2.66,28.95,3.65,42.78.94,13.18-.49,22.47-.25,29.47.16,4.84,1.12,8.59,4.13,11.74a.13.13,0,0,0,.19,0,.14.14,0,0,0,0-.19c-2.92-3.12-3.8-6.81-3.92-11.57-.19-7,1.21-16.29.29-29.48-1-13.82-3.6-28.44-3.6-42.75a88,88,0,0,1,1.55-17,62.52,62.52,0,0,1,3.16-11,.07.07,0,0,0,0-.09A.07.07,0,0,0,269.49,298.71Z" transform="translate(-37.8 -67.98)"/><path class="cls-5" d="M297.56,382.94c.56,1,1.29,2.23,2.22,3.57a54.8,54.8,0,0,0,11.36,12.32c4.17,3.14,8.74,5,13.06,3.73a.1.1,0,0,0,.07-.12.09.09,0,0,0-.12-.06c-4.26,1.2-8.72-.72-12.8-3.82A59.64,59.64,0,0,1,300,386.33c-.94-1.32-1.76-2.49-2.36-3.45a.07.07,0,0,0-.09,0A.07.07,0,0,0,297.56,382.94Z" transform="translate(-37.8 -67.98)"/><path class="cls-16" d="M283.51,245.47s-10.65-3.17-21.11,10.39-13.19,14.86-13.19,14.86-8.54-5.67-16.82-.78l-4.81,7a7.85,7.85,0,0,0,1.6,7.77c4.68,5.54,16.9,8.74,22.61,8.58,7.5-.2,13.26-6,13.26-6s-3.68,9.79,1.78,12.17l33.68-1.07c4.39-.47,2.9-5.08,2.9-5.08s10.2,5,18.12,1c7.14-3.62,9.24-13.58,3.24-22.26-4.06-5.89-15-24-22.85-25.25-5.66-.93-6.63-1.53-6.63-1.53S290.85,249.71,283.51,245.47Z" transform="translate(-37.8 -67.98)"/><g class="cls-22"><path class="cls-23" d="M236.37,272.48a1.57,1.57,0,0,0,.76,1.17,1.66,1.66,0,0,0,2.41-1,1.47,1.47,0,0,0-.93-2.1,1.85,1.85,0,0,0-1.9.48,1.89,1.89,0,0,0-.47,1.1A.29.29,0,0,0,236.37,272.48Zm.95-.54a.72.72,0,0,0,.33.77c.29.14.63,0,.77-.47a.37.37,0,0,0-.38-.53,1.18,1.18,0,0,0-.71.23Z" transform="translate(-37.8 -67.98)"/><path class="cls-23" d="M230.59,279.16a1.59,1.59,0,0,0,.76,1.18,1.65,1.65,0,0,0,2.4-1,1.48,1.48,0,0,0-.92-2.11,1.88,1.88,0,0,0-1.91.48,2,2,0,0,0-.47,1.1A.28.28,0,0,0,230.59,279.16Zm.95-.54a.73.73,0,0,0,.33.78c.28.13.63,0,.77-.48a.37.37,0,0,0-.38-.53,1.3,1.3,0,0,0-.72.23Z" transform="translate(-37.8 -67.98)"/><path class="cls-23" d="M240.54,280.28a1.57,1.57,0,0,0,.76,1.17,1.66,1.66,0,0,0,2.41-1,1.47,1.47,0,0,0-.93-2.1,1.85,1.85,0,0,0-1.9.48,1.89,1.89,0,0,0-.47,1.1A.29.29,0,0,0,240.54,280.28Zm1-.54a.72.72,0,0,0,.33.77c.29.14.63,0,.78-.47a.38.38,0,0,0-.39-.53,1.16,1.16,0,0,0-.71.22Z" transform="translate(-37.8 -67.98)"/><path class="cls-23" d="M243.11,288.57a1.59,1.59,0,0,0,.76,1.17,1.65,1.65,0,0,0,2.4-1,1.48,1.48,0,0,0-.92-2.11,1.81,1.81,0,0,0-2.38,1.58A.29.29,0,0,0,243.11,288.57Zm.95-.54a.72.72,0,0,0,.33.77c.28.14.63,0,.77-.48a.38.38,0,0,0-.38-.53,1.3,1.3,0,0,0-.72.23Z" transform="translate(-37.8 -67.98)"/><path class="cls-23" d="M249.08,275.82a1.61,1.61,0,0,0,.76,1.18,1.66,1.66,0,0,0,2.41-1,1.47,1.47,0,0,0-.93-2.1,1.85,1.85,0,0,0-1.9.48,1.89,1.89,0,0,0-.47,1.1A.29.29,0,0,0,249.08,275.82Zm.95-.54a.72.72,0,0,0,.33.77c.28.14.63,0,.77-.47a.37.37,0,0,0-.38-.53,1.25,1.25,0,0,0-.71.23Z" transform="translate(-37.8 -67.98)"/><path class="cls-23" d="M254.7,287.45a1.59,1.59,0,0,0,.76,1.18,1.65,1.65,0,0,0,2.4-1,1.47,1.47,0,0,0-.92-2.1A1.86,1.86,0,0,0,255,286a1.89,1.89,0,0,0-.47,1.1A.29.29,0,0,0,254.7,287.45Zm1-.54a.7.7,0,0,0,.33.77c.28.14.63,0,.77-.47a.38.38,0,0,0-.39-.53,1.29,1.29,0,0,0-.71.23Z" transform="translate(-37.8 -67.98)"/><path class="cls-23" d="M263.87,281.39a1.59,1.59,0,0,0,.76,1.18,1.66,1.66,0,0,0,2.41-1,1.47,1.47,0,0,0-.93-2.1,1.85,1.85,0,0,0-1.9.48,1.89,1.89,0,0,0-.47,1.1A.29.29,0,0,0,263.87,281.39Zm.95-.54a.72.72,0,0,0,.33.77c.29.14.63,0,.77-.47a.37.37,0,0,0-.38-.53,1.25,1.25,0,0,0-.71.23Z" transform="translate(-37.8 -67.98)"/><path class="cls-23" d="M258.54,276.93a1.59,1.59,0,0,0,.76,1.18,1.66,1.66,0,0,0,2.41-1,1.48,1.48,0,0,0-.93-2.11,1.87,1.87,0,0,0-1.9.48,1.92,1.92,0,0,0-.47,1.1A.28.28,0,0,0,258.54,276.93Zm.95-.54a.74.74,0,0,0,.33.78c.28.14.63,0,.77-.48a.37.37,0,0,0-.38-.53,1.25,1.25,0,0,0-.71.23Z" transform="translate(-37.8 -67.98)"/><path class="cls-23" d="M268.23,268.46a1.59,1.59,0,0,0,.76,1.17,1.65,1.65,0,0,0,2.4-1,1.46,1.46,0,0,0-.92-2.1,1.84,1.84,0,0,0-1.91.48,1.88,1.88,0,0,0-.47,1.09A.29.29,0,0,0,268.23,268.46Zm.95-.54a.71.71,0,0,0,.33.77c.28.14.63,0,.77-.47a.38.38,0,0,0-.38-.54,1.3,1.3,0,0,0-.72.23Z" transform="translate(-37.8 -67.98)"/><path class="cls-23" d="M265.15,259a1.59,1.59,0,0,0,.76,1.18,1.66,1.66,0,0,0,2.41-1,1.47,1.47,0,0,0-.93-2.1,1.87,1.87,0,0,0-1.9.48,1.89,1.89,0,0,0-.47,1.1A.29.29,0,0,0,265.15,259Zm1-.54a.74.74,0,0,0,.33.78c.29.13.63,0,.77-.48a.37.37,0,0,0-.38-.53,1.25,1.25,0,0,0-.71.23Z" transform="translate(-37.8 -67.98)"/><path class="cls-23" d="M275.22,250.66a1.52,1.52,0,0,0,.76,1.17,1.65,1.65,0,0,0,2.4-1,1.46,1.46,0,0,0-.92-2.1,1.86,1.86,0,0,0-1.91.48,1.89,1.89,0,0,0-.47,1.1A.29.29,0,0,0,275.22,250.66Zm.94-.54a.73.73,0,0,0,.34.77c.28.14.63,0,.77-.47a.37.37,0,0,0-.39-.53,1.18,1.18,0,0,0-.71.22Z" transform="translate(-37.8 -67.98)"/><path class="cls-23" d="M275.22,261.23a1.52,1.52,0,0,0,.76,1.17,1.65,1.65,0,0,0,2.4-1,1.46,1.46,0,0,0-.92-2.1,1.86,1.86,0,0,0-1.91.48,1.89,1.89,0,0,0-.47,1.1A.29.29,0,0,0,275.22,261.23Zm.94-.54a.73.73,0,0,0,.34.77c.28.14.63,0,.77-.47a.37.37,0,0,0-.39-.53,1.2,1.2,0,0,0-.71.23Z" transform="translate(-37.8 -67.98)"/><path class="cls-23" d="M285.27,252.89a1.59,1.59,0,0,0,.76,1.17,1.66,1.66,0,0,0,2.41-1,1.48,1.48,0,0,0-.93-2.11,1.85,1.85,0,0,0-1.9.49,1.88,1.88,0,0,0-.47,1.09A.3.3,0,0,0,285.27,252.89Zm1-.54a.73.73,0,0,0,.33.77c.29.14.63,0,.77-.48s-.11-.52-.38-.53a1.25,1.25,0,0,0-.71.23Z" transform="translate(-37.8 -67.98)"/><path class="cls-23" d="M285.27,263.46a1.59,1.59,0,0,0,.76,1.17,1.66,1.66,0,0,0,2.41-1,1.47,1.47,0,0,0-.93-2.1,1.83,1.83,0,0,0-1.9.48,1.88,1.88,0,0,0-.47,1.09A.3.3,0,0,0,285.27,263.46Zm1-.54a.72.72,0,0,0,.33.77c.29.14.63,0,.77-.47a.38.38,0,0,0-.38-.54,1.25,1.25,0,0,0-.71.23Z" transform="translate(-37.8 -67.98)"/><path class="cls-23" d="M277.78,271.85a1.59,1.59,0,0,0,.76,1.18,1.66,1.66,0,0,0,2.41-1,1.48,1.48,0,0,0-.93-2.11,1.87,1.87,0,0,0-1.9.48,1.92,1.92,0,0,0-.47,1.1A.29.29,0,0,0,277.78,271.85Zm1-.54a.73.73,0,0,0,.33.78c.28.13.63,0,.77-.48a.37.37,0,0,0-.38-.53,1.25,1.25,0,0,0-.71.23Z" transform="translate(-37.8 -67.98)"/><path class="cls-23" d="M273.94,281.88a1.56,1.56,0,0,0,.76,1.18,1.66,1.66,0,0,0,2.4-1,1.47,1.47,0,0,0-.92-2.1,1.86,1.86,0,0,0-1.91.48,1.89,1.89,0,0,0-.47,1.1A.29.29,0,0,0,273.94,281.88Zm.95-.54a.71.71,0,0,0,.33.77c.28.14.63,0,.77-.47a.38.38,0,0,0-.39-.53,1.27,1.27,0,0,0-.71.23Z" transform="translate(-37.8 -67.98)"/><path class="cls-23" d="M268.12,291.8a1.57,1.57,0,0,0,.76,1.17,1.66,1.66,0,0,0,2.41-1,1.47,1.47,0,0,0-.93-2.1,1.85,1.85,0,0,0-1.9.48,2,2,0,0,0-.48,1.1A.3.3,0,0,0,268.12,291.8Zm.95-.54a.71.71,0,0,0,.33.77c.28.14.63,0,.77-.47a.37.37,0,0,0-.38-.53,1.25,1.25,0,0,0-.71.23Z" transform="translate(-37.8 -67.98)"/><path class="cls-23" d="M280.34,295.85a1.57,1.57,0,0,0,.76,1.17,1.66,1.66,0,0,0,2.41-1,1.47,1.47,0,0,0-.93-2.1,1.85,1.85,0,0,0-1.9.48,1.89,1.89,0,0,0-.47,1.1A.29.29,0,0,0,280.34,295.85Zm1-.54a.72.72,0,0,0,.33.77c.29.14.63,0,.78-.47a.38.38,0,0,0-.39-.53,1.18,1.18,0,0,0-.71.23Z" transform="translate(-37.8 -67.98)"/><path class="cls-23" d="M282.91,285.3a1.56,1.56,0,0,0,.76,1.18,1.65,1.65,0,0,0,2.4-1,1.48,1.48,0,0,0-.92-2.11,1.88,1.88,0,0,0-1.91.48,1.92,1.92,0,0,0-.47,1.1A.28.28,0,0,0,282.91,285.3Zm.95-.54a.73.73,0,0,0,.33.78c.28.14.63,0,.77-.48a.38.38,0,0,0-.39-.53,1.27,1.27,0,0,0-.71.23Z" transform="translate(-37.8 -67.98)"/><path class="cls-23" d="M286.55,275.47a1.57,1.57,0,0,0,.76,1.17,1.66,1.66,0,0,0,2.41-1,1.47,1.47,0,0,0-.93-2.1,1.85,1.85,0,0,0-1.9.48,1.89,1.89,0,0,0-.47,1.1A.29.29,0,0,0,286.55,275.47Zm.95-.54a.72.72,0,0,0,.33.77c.29.14.63,0,.77-.47a.37.37,0,0,0-.38-.53,1.16,1.16,0,0,0-.71.22Z" transform="translate(-37.8 -67.98)"/><path class="cls-23" d="M292.07,285.3a1.57,1.57,0,0,0,.77,1.18,1.65,1.65,0,0,0,2.4-1,1.48,1.48,0,0,0-.92-2.11,1.88,1.88,0,0,0-1.91.48,1.92,1.92,0,0,0-.47,1.1A.28.28,0,0,0,292.07,285.3Zm.95-.54a.74.74,0,0,0,.33.78c.29.14.64,0,.78-.48a.38.38,0,0,0-.39-.53,1.27,1.27,0,0,0-.71.23Z" transform="translate(-37.8 -67.98)"/><path class="cls-23" d="M292.07,294.73a1.57,1.57,0,0,0,.77,1.18,1.65,1.65,0,0,0,2.4-1,1.48,1.48,0,0,0-.92-2.11,1.88,1.88,0,0,0-1.91.48,1.92,1.92,0,0,0-.47,1.1A.29.29,0,0,0,292.07,294.73Zm.95-.54a.74.74,0,0,0,.33.78c.29.13.64,0,.78-.48a.38.38,0,0,0-.39-.53,1.27,1.27,0,0,0-.71.23Z" transform="translate(-37.8 -67.98)"/><path class="cls-23" d="M300.59,289.57a1.56,1.56,0,0,0,.76,1.18,1.65,1.65,0,0,0,2.4-1,1.47,1.47,0,0,0-.92-2.1,1.86,1.86,0,0,0-1.91.48,1.89,1.89,0,0,0-.47,1.1A.29.29,0,0,0,300.59,289.57Zm.94-.54a.72.72,0,0,0,.34.77c.28.14.63,0,.77-.47a.38.38,0,0,0-.39-.53,1.27,1.27,0,0,0-.71.23Z" transform="translate(-37.8 -67.98)"/><path class="cls-23" d="M298.79,277.37a1.61,1.61,0,0,0,.76,1.18,1.67,1.67,0,0,0,2.41-1,1.48,1.48,0,0,0-.93-2.1,1.84,1.84,0,0,0-1.9.48,2,2,0,0,0-.48,1.1A.29.29,0,0,0,298.79,277.37Zm.95-.54a.71.71,0,0,0,.33.77c.28.14.63,0,.77-.47a.37.37,0,0,0-.38-.53,1.3,1.3,0,0,0-.72.23Z" transform="translate(-37.8 -67.98)"/><path class="cls-23" d="M296.51,268.37a1.59,1.59,0,0,0,.76,1.18,1.65,1.65,0,0,0,2.4-1,1.48,1.48,0,0,0-.92-2.11,1.88,1.88,0,0,0-1.91.48,2,2,0,0,0-.47,1.1A.28.28,0,0,0,296.51,268.37Zm.95-.54a.73.73,0,0,0,.33.78c.28.14.63,0,.77-.48a.37.37,0,0,0-.38-.53,1.3,1.3,0,0,0-.72.23Z" transform="translate(-37.8 -67.98)"/><path class="cls-23" d="M293.94,256.8a1.57,1.57,0,0,0,.76,1.17,1.66,1.66,0,0,0,2.41-1,1.47,1.47,0,0,0-.93-2.1,1.85,1.85,0,0,0-1.9.48,1.89,1.89,0,0,0-.47,1.1A.29.29,0,0,0,293.94,256.8Zm.95-.54a.72.72,0,0,0,.33.77c.29.14.63,0,.78-.47a.38.38,0,0,0-.39-.53,1.2,1.2,0,0,0-.71.23Z" transform="translate(-37.8 -67.98)"/><path class="cls-23" d="M296.51,249.71a1.59,1.59,0,0,0,.76,1.17,1.65,1.65,0,0,0,2.4-1,1.46,1.46,0,0,0-.92-2.1,1.84,1.84,0,0,0-1.91.48,2,2,0,0,0-.47,1.09A.29.29,0,0,0,296.51,249.71Zm.95-.54a.71.71,0,0,0,.33.77c.28.14.63,0,.77-.47a.38.38,0,0,0-.38-.54,1.3,1.3,0,0,0-.72.23Z" transform="translate(-37.8 -67.98)"/><path class="cls-23" d="M307.22,255.68a1.59,1.59,0,0,0,.76,1.18,1.66,1.66,0,0,0,2.41-1,1.49,1.49,0,0,0-.93-2.11,1.88,1.88,0,0,0-1.91.48,2.06,2.06,0,0,0-.47,1.1A.28.28,0,0,0,307.22,255.68Zm.95-.54a.73.73,0,0,0,.33.78c.28.14.63,0,.77-.48a.37.37,0,0,0-.38-.53,1.3,1.3,0,0,0-.72.23Z" transform="translate(-37.8 -67.98)"/><path class="cls-23" d="M300.59,260.82a1.56,1.56,0,0,0,.76,1.18,1.66,1.66,0,0,0,2.4-1,1.47,1.47,0,0,0-.92-2.1,1.86,1.86,0,0,0-1.91.48,1.89,1.89,0,0,0-.47,1.1A.29.29,0,0,0,300.59,260.82Zm.94-.54a.73.73,0,0,0,.34.77c.28.14.63,0,.77-.47a.38.38,0,0,0-.39-.53,1.27,1.27,0,0,0-.71.23Z" transform="translate(-37.8 -67.98)"/><path class="cls-23" d="M312.4,264.33a1.59,1.59,0,0,0,.76,1.17,1.65,1.65,0,0,0,2.4-1,1.48,1.48,0,0,0-.92-2.11,1.87,1.87,0,0,0-1.91.49,2,2,0,0,0-.47,1.09A.29.29,0,0,0,312.4,264.33Zm1-.54a.72.72,0,0,0,.33.77c.28.14.63,0,.77-.47a.38.38,0,0,0-.38-.54,1.3,1.3,0,0,0-.72.23Z" transform="translate(-37.8 -67.98)"/><path class="cls-23" d="M306.59,269.9a1.59,1.59,0,0,0,.76,1.17,1.66,1.66,0,0,0,2.41-1,1.47,1.47,0,0,0-.93-2.1,1.83,1.83,0,0,0-1.9.48,1.89,1.89,0,0,0-.47,1.1A.29.29,0,0,0,306.59,269.9Zm1-.54a.72.72,0,0,0,.33.77c.29.14.63,0,.78-.47a.39.39,0,0,0-.39-.54,1.25,1.25,0,0,0-.71.23Z" transform="translate(-37.8 -67.98)"/><path class="cls-23" d="M317,270.6a1.59,1.59,0,0,0,.76,1.18,1.65,1.65,0,0,0,2.4-1,1.48,1.48,0,0,0-.92-2.11,1.88,1.88,0,0,0-1.91.48,2.06,2.06,0,0,0-.47,1.1A.28.28,0,0,0,317,270.6Zm1-.54a.73.73,0,0,0,.33.78c.28.13.63,0,.77-.48a.37.37,0,0,0-.38-.53,1.3,1.3,0,0,0-.72.23Z" transform="translate(-37.8 -67.98)"/><path class="cls-23" d="M306.59,279.6a1.57,1.57,0,0,0,.76,1.17,1.66,1.66,0,0,0,2.41-1,1.47,1.47,0,0,0-.93-2.1,1.85,1.85,0,0,0-1.9.48,1.89,1.89,0,0,0-.47,1.1A.29.29,0,0,0,306.59,279.6Zm1-.54a.72.72,0,0,0,.33.77c.29.14.63,0,.78-.47a.38.38,0,0,0-.39-.53,1.18,1.18,0,0,0-.71.23Z" transform="translate(-37.8 -67.98)"/><path class="cls-23" d="M318.3,278.48a1.59,1.59,0,0,0,.76,1.18,1.66,1.66,0,0,0,2.41-1,1.48,1.48,0,0,0-.93-2.11,1.87,1.87,0,0,0-1.9.48,2,2,0,0,0-.48,1.1A.29.29,0,0,0,318.3,278.48Zm.95-.54a.73.73,0,0,0,.33.78c.28.13.63,0,.77-.48a.37.37,0,0,0-.38-.53,1.25,1.25,0,0,0-.71.23Z" transform="translate(-37.8 -67.98)"/><path class="cls-23" d="M323.53,286.39a1.59,1.59,0,0,0,.76,1.18,1.66,1.66,0,0,0,2.41-1,1.47,1.47,0,0,0-.93-2.1,1.85,1.85,0,0,0-1.9.48,1.89,1.89,0,0,0-.47,1.1A.29.29,0,0,0,323.53,286.39Zm1-.54a.72.72,0,0,0,.33.77c.28.14.63,0,.77-.47a.37.37,0,0,0-.38-.53,1.25,1.25,0,0,0-.71.23Z" transform="translate(-37.8 -67.98)"/><path class="cls-23" d="M313.57,284.14a1.59,1.59,0,0,0,.76,1.17,1.66,1.66,0,0,0,2.41-1,1.48,1.48,0,0,0-.93-2.11,1.85,1.85,0,0,0-1.9.49,1.88,1.88,0,0,0-.47,1.09A.3.3,0,0,0,313.57,284.14Zm.95-.54a.73.73,0,0,0,.33.77c.28.14.63,0,.77-.47a.38.38,0,0,0-.38-.54,1.25,1.25,0,0,0-.71.23Z" transform="translate(-37.8 -67.98)"/><path class="cls-23" d="M312.29,291.93a1.59,1.59,0,0,0,.76,1.18,1.66,1.66,0,0,0,2.41-1,1.49,1.49,0,0,0-.93-2.11,1.85,1.85,0,0,0-1.9.49,2,2,0,0,0-.48,1.09A.28.28,0,0,0,312.29,291.93Zm.95-.54a.73.73,0,0,0,.33.78c.28.14.63,0,.77-.48a.37.37,0,0,0-.38-.53,1.3,1.3,0,0,0-.72.23Z" transform="translate(-37.8 -67.98)"/><path class="cls-23" d="M256,267.34a1.59,1.59,0,0,0,.76,1.18,1.66,1.66,0,0,0,2.41-1,1.48,1.48,0,0,0-.93-2.1,1.84,1.84,0,0,0-1.9.48,2,2,0,0,0-.48,1.1A.28.28,0,0,0,256,267.34Zm1-.54a.73.73,0,0,0,.33.78c.28.13.63,0,.77-.48a.37.37,0,0,0-.38-.53,1.3,1.3,0,0,0-.72.23Z" transform="translate(-37.8 -67.98)"/><path class="cls-5" d="M249.6,270.34c-.1.22-.23.42-.32.64s-.13.45-.2.68c-.41,1.44-.78,2.89-1.12,4.35-.08.36-.15.73-.24,1.1l0,0s0,0,0,0c.12-.36.26-.71.37-1.06.47-1.43.86-2.88,1.28-4.31.07-.23.14-.45.19-.68s.06-.46.1-.7a.07.07,0,0,0,0-.08A.07.07,0,0,0,249.6,270.34Z" transform="translate(-37.8 -67.98)"/><path class="cls-5" d="M249.47,270.6a6.12,6.12,0,0,0,0,.74,5.6,5.6,0,0,0,.2.7c.33,1.11.69,2.21,1,3.31.23.74.48,1.47.67,2.21a.08.08,0,1,0,.16,0,30.86,30.86,0,0,0-.8-3.55,24.47,24.47,0,0,0-.86-2.76c-.1-.24-.23-.43-.34-.66a.06.06,0,1,0-.12,0Z" transform="translate(-37.8 -67.98)"/><path class="cls-5" d="M264.89,286.94a12.3,12.3,0,0,0,1-.84c.34-.3.63-.63.94-1a31.1,31.1,0,0,0,5.66-9,35.28,35.28,0,0,0,2.65-13,0,0,0,0,0-.05-.05.05.05,0,0,0-.05.05A36.09,36.09,0,0,1,272.16,276a32.56,32.56,0,0,1-5.58,8.92c-.29.33-.6.64-.89,1s-.58.67-.89,1a.07.07,0,0,0,0,.1A.07.07,0,0,0,264.89,286.94Z" transform="translate(-37.8 -67.98)"/><path class="cls-5" d="M274,271.54a3.88,3.88,0,0,0,.31-.26,9.71,9.71,0,0,0,.87-1.32,16,16,0,0,0,1.31-2.66.17.17,0,0,0-.09-.21.16.16,0,0,0-.21.1,13.12,13.12,0,0,1-.61,1.32c-.41.8-1,1.52-1.41,2.32-.11.21-.18.42-.29.64a.07.07,0,0,0,0,.09A.08.08,0,0,0,274,271.54Z" transform="translate(-37.8 -67.98)"/><path class="cls-5" d="M303.12,293.74a3.61,3.61,0,0,0,.16-.42,15,15,0,0,0,.33-4c0-2.16-.26-4.29-.39-6.6-.11-1.84-.18-3.63-.22-5.39s-.06-3.59.06-5.38a36.44,36.44,0,0,1,1.16-7.07.09.09,0,1,0-.18-.05,35.18,35.18,0,0,0-1.61,8.89,74.49,74.49,0,0,0,.2,9c.18,2.3.49,4.41.56,6.56a37.85,37.85,0,0,1-.2,3.92c0,.15,0,.29,0,.44a.08.08,0,0,0,.06.08A.05.05,0,0,0,303.12,293.74Z" transform="translate(-37.8 -67.98)"/><path class="cls-5" d="M302.94,278.94c-.05.17-.12.14-.1.31s.29.43.44.65c1.18,1.62,2.5,3.21,3.69,4.85.52.71,1,1.4,1.5,2.13a.13.13,0,0,0,.18.06.15.15,0,0,0,.06-.19,23.68,23.68,0,0,0-1.16-2.16c-.42-.69-.89-1.36-1.37-2-.86-1.18-1.71-2.38-2.62-3.49-.06-.07-.11-.17-.2-.21s-.15,0-.32,0a.06.06,0,1,0-.1.08Z" transform="translate(-37.8 -67.98)"/><path class="cls-5" d="M303.31,279.15a5.66,5.66,0,0,0,0,.57,10.11,10.11,0,0,0,.48,2.18c.58,2.06,1.44,4,2.08,6.1a.16.16,0,0,0,.21.12.19.19,0,0,0,.12-.22l-2.71-8.77s-.05-.06-.08-.05A.07.07,0,0,0,303.31,279.15Z" transform="translate(-37.8 -67.98)"/></g><path class="cls-18" d="M286.72,216.3c-6.58.1-13.09,5.32-12.87,17.14s.57,19.5-.86,27.85c-2.19,12.71-1.86,19.78,2,24.4,0,0-3.55-8.84-.05-17.35,0,0-3.82,14.57,6.85,21.3a21.22,21.22,0,0,1-.83-8.2s-.7,7.58,6.46,9.7l.72-8.28,1.26,8.43s10.83-1.49,12.49-14.28A14.3,14.3,0,0,1,299,287.12s8.43-5.68,7-16.28-4-16.58-4.1-19.52C301.57,237.89,304.86,216,286.72,216.3Z" transform="translate(-37.8 -67.98)"/></g></svg>