<svg id="PRINT" xmlns="http://www.w3.org/2000/svg" xmlns:xlink="http://www.w3.org/1999/xlink" viewBox="0 0 1144.46 927.05"><defs><style>.cls-1,.cls-6,.cls-7,.cls-8{fill:none;}.cls-2{fill:#df5da2;}.cls-3{stroke:#db3f27;stroke-width:3.98px;fill:url(#linear-gradient);}.cls-3,.cls-6,.cls-7,.cls-8{stroke-linecap:round;stroke-linejoin:round;}.cls-4{clip-path:url(#clip-path);}.cls-5{fill:#eec17e;}.cls-6,.cls-8{stroke:#2b2b2b;}.cls-6{stroke-width:1.99px;}.cls-7{stroke:#fff;}.cls-7,.cls-8{stroke-width:6.31px;}.cls-9{fill:#01cbdb;}.cls-10{fill:#fff;}</style><linearGradient id="linear-gradient" x1="264.36" y1="469.27" x2="868.45" y2="469.27" gradientTransform="translate(63.32 -63.7) rotate(6.6)" gradientUnits="userSpaceOnUse"><stop offset="0" stop-color="#fff"/><stop offset="1"/></linearGradient><clipPath id="clip-path" transform="translate(14.17 14.17)"><polygon class="cls-1" points="877.49 856.06 253.86 856.06 253.86 -14.17 565.67 -14.17 877.49 -14.17 877.49 856.06"/></clipPath></defs><rect class="cls-2" width="1144.46" height="870.24"/><polygon class="cls-2" points="891.66 870.24 268.04 870.24 268.04 0 579.85 0 891.66 0 891.66 870.24"/><path class="cls-3" d="M441.89,789.34l-11,26.52M459.53,747l-9.73,23.36M713.11,209.47l-34,60.83m47.82-85.53-13.82,24.7m47.33-84.64L731.77,176.1M326.32,744.64l-31.56,33.7m121.6-129.87-75.13,80.24M468.12,593.18l-40,42.73m7,63.71L366.56,808.15M752.83,251.28,694.94,321m140-168.49L775.51,224M341.23,623.32l-34,21.08m140.42-86.9-77.55,47.9M785,343l-89.84,51.4m152-86.94-35.49,20.31M432.17,530.11,282.46,586.77M829.2,354.65l-91.42,38.81M334.46,492.57l-52,6.71m125.71-16.23-59.75,7.72M833.08,428.2,699.92,445.39m-346.26,2.3-67.13-4.39m149.64,7.17-66.31-2.4m410.61,25.46-30.84-1.9m91.26,5.63-40.1-2.47m-478-87.23-30.37-9.48m119.81,35.18-55-15.81m416.2,119.63-54.31-15.61M839.2,536,787,521m.93,77.21,53.77,35.22M694.48,537l76.62,50.18M316.54,332.88l120.33,45.37M284.92,321l21.7,8.19M384.48,277l-64-62.54M422,313.62l-27.39-26.75M785.4,651l-79.1-72.63M848.18,708.64l-50.6-46.47m-77,129,10,22.37m-46-102.71,28.86,64.46m50-30.64,39.39,61.28m-61.12-95.1,10.94,17M674.15,605.58l58.64,91.22M402.58,203.74l48.29,73M384.46,176.36l8.26,12.48M353.81,130l24.92,37.68" transform="translate(14.17 14.17)"/><g class="cls-4"><path class="cls-5" d="M679.94,512.91c5.71-20.73-5.23-38.74-16.83-55.28,5-40.37,7.89-83,13.77-122.61,1.68-11.31,2.61-17.63-.36-27.4S665.77,291.81,656,291.31c-6.43-.33-11.78,3.62-15.65,8.24s-5.81,10.21-7.59,15.86a629.64,629.64,0,0,0-17.4,70.89c-18-7.53-35.2-7.65-52.91.38-20.18-8-37.38-6.3-56.69,3.31-1.58-18-3.54-34.72-5.39-53.1-.58-5.75-1.14-13.84-4.2-19.77s-8.51-12.07-15.85-12.44c-8.28-.42-15.3,2.89-19.3,11S456.63,327,456,338.29c-2,38.47.86,81.8,1.08,121.75,1.3,40.91.79,94.07,45.15,115.05,28,13.25,74.85,18.2,108.64,8.45S665.28,544.87,679.94,512.91Z" transform="translate(14.17 14.17)"/><path class="cls-6" d="M663.22,457.43s-21.87-20.13-25.48-21.08-78.32-1.42-76.68,19.63,56,21.41,56,21.41l8.8,14.84s-20.37,1.64-37,19.17" transform="translate(14.17 14.17)"/><path class="cls-6" d="M608.09,477c-5,9.61-41.38,8.7-47.58-3.88s2.86-85.44,2.86-85.44" transform="translate(14.17 14.17)"/><path class="cls-6" d="M614.57,386.54s-.46,24.4-1.7,48" transform="translate(14.17 14.17)"/><path class="cls-6" d="M510,389.85s-8.06,66.63,6.81,80.87c10.51,10.07,26.88,9.15,36.19,6.29a17.77,17.77,0,0,0,6.68-4.1" transform="translate(14.17 14.17)"/><polygon class="cls-5" points="655.06 576.84 670.89 927.05 497.76 927.05 507.43 583.17 655.06 576.84"/><line class="cls-7" x1="663.92" y1="606.51" x2="492.79" y2="627.12"/><line class="cls-8" x1="663.36" y1="598.56" x2="494.1" y2="608.77"/><line class="cls-7" x1="661.11" y1="584.1" x2="495.79" y2="600.06"/><polygon class="cls-9" points="678.15 721.2 487.83 726.91 484.76 753.03 678.15 744.34 678.15 721.2"/><path class="cls-10" d="M476,715.6c.19,0,17-1,17-1l.64,19.5-19.18,1Z" transform="translate(14.17 14.17)"/><polygon class="cls-10" points="515.53 728.49 515.53 748.57 533.56 748.25 532.09 728.49 515.53 728.49"/><polygon class="cls-10" points="540.69 728.49 543.2 747.29 564.45 745.76 563.26 727.72 540.69 728.49"/><rect class="cls-10" x="571.55" y="727.72" width="21.55" height="17.08"/><polygon class="cls-10" points="600.6 727.31 603.16 744.38 623.62 742.66 623.62 725 600.6 727.31"/><polygon class="cls-10" points="631.48 725.74 631.48 742.24 651.31 740.71 651.31 725.74 631.48 725.74"/><polygon class="cls-10" points="675.23 724.52 674.59 740.64 657.96 741.92 658.86 725.42 675.23 724.52"/></g></svg>